<svg width="936" height="189" viewBox="0 0 936 189" fill="none" xmlns="http://www.w3.org/2000/svg">
<path d="M0 5.0304H70.3115C84.3151 5.0304 96.4315 7.12672 106.662 11.3194C116.975 15.512 124.899 21.7171 130.434 29.9347C135.968 38.1523 138.735 48.2986 138.735 60.3735C138.735 70.4358 137.101 78.9889 133.83 86.0325C130.56 93.0761 125.948 98.9039 119.995 103.516C114.124 108.128 107.248 111.859 99.3661 114.71L86.0332 122.006H26.1629L25.9111 90.1832H70.4364C76.5587 90.1832 81.6313 89.0932 85.6565 86.913C89.6816 84.7328 92.7002 81.6721 94.7122 77.731C96.8083 73.7061 97.8568 69.0104 97.8568 63.6437C97.8568 58.1094 96.8083 53.3298 94.7122 49.3049C92.6162 45.2799 89.5136 42.2192 85.4045 40.1229C81.3794 37.9427 76.3487 36.8526 70.3115 36.8526H41.0041V188.166H0V5.0304ZM101.379 188.166L60.2492 106.786L103.517 106.66L145.276 186.279V188.166H101.379Z" fill="white"/>
<path d="M291.054 156.469V188.166H193.576V156.469H291.054ZM207.537 5.0304V188.166H166.533V5.0304H207.537ZM278.476 78.7373V109.427H193.576V78.7373H278.476ZM291.18 5.0304V36.8526H193.576V5.0304H291.18Z" fill="white"/>
<path d="M383.377 124.521H337.341V92.6988H383.377C390.169 92.6988 395.619 91.5668 399.728 89.3028C403.92 87.0387 406.981 83.9362 408.91 79.9951C410.922 75.9701 411.929 71.442 411.929 66.4109C411.929 61.212 410.922 56.3904 408.91 51.9462C406.981 47.4181 403.92 43.7705 399.728 41.0034C395.619 38.2362 390.169 36.8526 383.377 36.8526H352.183V188.166H311.179V5.0304H383.377C397.967 5.0304 410.461 7.67176 420.859 12.9545C431.341 18.2372 439.349 25.4906 444.883 34.7144C450.501 43.8544 453.311 54.336 453.311 66.1593C453.311 77.9826 450.501 88.2546 444.883 96.9753C439.349 105.696 431.341 112.488 420.859 117.352C410.461 122.132 397.967 124.521 383.377 124.521Z" fill="white"/>
<path d="M602.736 156.469V188.166H505.257V156.469H602.736ZM519.219 5.0304V188.166H478.215V5.0304H519.219ZM590.158 78.7373V109.427H505.257V78.7373H590.158ZM602.862 5.0304V36.8526H505.257V5.0304H602.862Z" fill="white"/>
<path d="M710.657 5.0304V188.166H669.775V5.0304H710.657ZM766.379 5.0304V36.8526H615.189V5.0304H766.379Z" fill="white"/>
<path d="M935.803 90.0583V98.2339C935.803 112.153 933.871 124.647 930.019 135.716C926.241 146.785 920.836 156.219 913.793 164.016C906.834 171.815 898.532 177.811 888.886 182.003C879.325 186.112 868.724 188.166 857.063 188.166C845.413 188.166 834.759 186.112 825.114 182.003C815.468 177.811 807.082 171.815 799.955 164.016C792.912 156.219 787.465 146.785 783.603 135.716C779.751 124.647 777.819 112.153 777.819 98.2339V90.0583C777.819 76.1386 779.751 63.6445 783.603 52.5759C787.465 41.4235 792.87 31.948 799.829 24.1497C806.872 16.3513 815.216 10.3978 824.862 6.28898C834.507 2.09633 845.161 0 856.811 0C868.472 0 879.115 2.09633 888.76 6.28898C898.406 10.3978 906.708 16.3513 913.667 24.1497C920.71 31.948 926.157 41.4235 930.019 52.5759C933.871 63.6445 935.803 76.1386 935.803 90.0583ZM894.418 98.2339V89.8067C894.418 80.499 893.578 72.2814 891.909 65.1539C890.23 57.9425 887.795 51.9051 884.604 47.0416C881.424 42.1781 877.477 38.5305 872.786 36.0987C868.094 33.5832 862.762 32.3254 856.811 32.3254C850.608 32.3254 845.203 33.5832 840.584 36.0987C835.977 38.5305 832.072 42.1781 828.892 47.0416C825.785 51.9051 823.392 57.9425 821.723 65.1539C820.128 72.2814 819.33 80.499 819.33 89.8067V98.2339C819.33 107.457 820.128 115.676 821.723 122.887C823.392 130.014 825.827 136.052 829.018 140.999C832.198 145.947 836.103 149.678 840.71 152.194C845.412 154.708 850.86 155.967 857.063 155.967C863.014 155.967 868.304 154.708 872.912 152.194C877.603 149.678 881.55 145.947 884.73 140.999C887.921 136.052 890.314 130.014 891.909 122.887C893.578 115.676 894.418 107.457 894.418 98.2339Z" fill="white"/>
</svg>
