<svg width="1337" height="189" viewBox="0 0 1337 189" fill="none" xmlns="http://www.w3.org/2000/svg">
<g clip-path="url(#clip0_43_2)">
<path d="M401.127 5.0304H471.439C485.442 5.0304 497.559 7.12672 507.789 11.3194C518.102 15.512 526.027 21.7171 531.561 29.9347C537.096 38.1523 539.862 48.2986 539.862 60.3735C539.862 70.4358 538.228 78.9889 534.958 86.0325C531.687 93.0761 527.075 98.9039 521.122 103.516C515.252 108.128 508.376 111.859 500.493 114.71L487.161 122.006H427.29L427.038 90.1832H471.564C477.686 90.1832 482.759 89.0932 486.784 86.913C490.809 84.7328 493.828 81.6721 495.84 77.731C497.936 73.7061 498.984 69.0104 498.984 63.6437C498.984 58.1094 497.936 53.3298 495.84 49.3049C493.744 45.2799 490.641 42.2192 486.532 40.1229C482.507 37.9427 477.476 36.8526 471.439 36.8526H442.131V188.166H401.127V5.0304ZM502.506 188.166L461.377 106.786L504.645 106.66L546.403 186.279V188.166H502.506Z" fill="white"/>
<path d="M692.182 156.469V188.166H594.703V156.469H692.182ZM608.664 5.0304V188.166H567.66V5.0304H608.664ZM679.604 78.7373V109.427H594.703V78.7373H679.604ZM692.308 5.0304V36.8526H594.703V5.0304H692.308Z" fill="white"/>
<path d="M784.504 124.521H738.468V92.6988H784.504C791.296 92.6988 796.746 91.5668 800.856 89.3028C805.048 87.0387 808.108 83.9362 810.037 79.9951C812.049 75.9701 813.056 71.442 813.056 66.4109C813.056 61.212 812.049 56.3904 810.037 51.9462C808.108 47.4181 805.048 43.7705 800.856 41.0034C796.746 38.2362 791.296 36.8526 784.504 36.8526H753.311V188.166H712.306V5.0304H784.504C799.094 5.0304 811.589 7.67176 821.987 12.9545C832.468 18.2372 840.476 25.4906 846.011 34.7144C851.628 43.8544 854.438 54.336 854.438 66.1593C854.438 77.9826 851.628 88.2546 846.011 96.9753C840.476 105.696 832.468 112.488 821.987 117.352C811.589 122.132 799.094 124.521 784.504 124.521Z" fill="white"/>
<path d="M1003.86 156.469V188.166H906.385V156.469H1003.86ZM920.346 5.0304V188.166H879.342V5.0304H920.346ZM991.286 78.7373V109.427H906.385V78.7373H991.286ZM1003.99 5.0304V36.8526H906.385V5.0304H1003.99Z" fill="white"/>
<path d="M1111.78 5.0304V188.166H1070.9V5.0304H1111.78ZM1167.51 5.0304V36.8526H1016.32V5.0304H1167.51Z" fill="white"/>
<path d="M1336.93 90.0583V98.2339C1336.93 112.153 1335 124.647 1331.15 135.716C1327.37 146.785 1321.96 156.219 1314.92 164.016C1307.96 171.815 1299.66 177.811 1290.01 182.003C1280.45 186.112 1269.85 188.166 1258.19 188.166C1246.54 188.166 1235.89 186.112 1226.24 182.003C1216.6 177.811 1208.21 171.815 1201.08 164.016C1194.04 156.219 1188.59 146.785 1184.73 135.716C1180.88 124.647 1178.95 112.153 1178.95 98.2339V90.0583C1178.95 76.1386 1180.88 63.6445 1184.73 52.5759C1188.59 41.4235 1194 31.948 1200.96 24.1497C1208 16.3513 1216.34 10.3978 1225.99 6.28898C1235.63 2.09633 1246.29 0 1257.94 0C1269.6 0 1280.24 2.09633 1289.89 6.28898C1299.53 10.3978 1307.84 16.3513 1314.79 24.1497C1321.84 31.948 1327.28 41.4235 1331.15 52.5759C1335 63.6445 1336.93 76.1386 1336.93 90.0583ZM1295.54 98.2339V89.8067C1295.54 80.499 1294.71 72.2814 1293.04 65.1539C1291.36 57.9425 1288.92 51.9051 1285.73 47.0416C1282.55 42.1781 1278.6 38.5305 1273.91 36.0987C1269.22 33.5832 1263.89 32.3254 1257.94 32.3254C1251.74 32.3254 1246.33 33.5832 1241.71 36.0987C1237.1 38.5305 1233.2 42.1781 1230.02 47.0416C1226.91 51.9051 1224.52 57.9425 1222.85 65.1539C1221.26 72.2814 1220.46 80.499 1220.46 89.8067V98.2339C1220.46 107.457 1221.26 115.676 1222.85 122.887C1224.52 130.014 1226.95 136.052 1230.15 140.999C1233.33 145.947 1237.23 149.678 1241.84 152.194C1246.54 154.708 1251.99 155.967 1258.19 155.967C1264.14 155.967 1269.43 154.708 1274.04 152.194C1278.73 149.678 1282.68 145.947 1285.86 140.999C1289.05 136.052 1291.44 130.014 1293.04 122.887C1294.71 115.676 1295.54 107.457 1295.54 98.2339Z" fill="white"/>
<path d="M376.285 8.16602H203.008C194.723 8.16602 188.008 14.8817 188.008 23.166C188.008 31.4503 194.723 38.166 203.008 38.166H376.285" stroke="white" stroke-width="6"/>
<path d="M0 153.166C0 133.836 15.67 118.166 35 118.166H376.285V188.166H35C15.67 188.166 0 172.496 0 153.166Z" fill="#98E9AB"/>
<path d="M83.6953 78.166C83.6953 64.3589 94.8882 53.166 108.695 53.166H376.285V103.166H108.695C94.8882 103.166 83.6953 91.9731 83.6953 78.166Z" fill="#005BAC"/>
</g>
<defs>
<clipPath id="clip0_43_2">
<rect width="1337" height="189" fill="white"/>
</clipPath>
</defs>
</svg>
