<svg width="21" height="10" viewBox="0 0 21 10" fill="none" xmlns="http://www.w3.org/2000/svg">
<path d="M-5.40352e-05 0.0499878H10.5402C11.0441 0.0499878 11.4526 0.411396 11.4526 0.857215C11.4526 1.30304 11.0441 1.66444 10.5402 1.66444H-5.40352e-05" fill="#020202"/>
<path d="M-5.40352e-05 0.0499878H10.5402C11.0441 0.0499878 11.4526 0.411396 11.4526 0.857215C11.4526 1.30304 11.0441 1.66444 10.5402 1.66444H-5.40352e-05" stroke="#1E1E1E" stroke-width="0.1"/>
<path d="M20.25 7.85344C20.25 6.8132 19.4067 5.96991 18.3665 5.96991H0.000135422V9.73698H18.3665C19.4067 9.73698 20.25 8.89369 20.25 7.85344V7.85344Z" fill="#98E9AB"/>
<path d="M15.7461 3.81724C15.7461 3.07421 15.1437 2.47186 14.4007 2.47186H0.000318527V5.16262H14.4007C15.1437 5.16262 15.7461 4.56028 15.7461 3.81724V3.81724Z" fill="#AE7AFF"/>
</svg>
