<svg width="109" height="33" viewBox="0 0 109 33" fill="none" xmlns="http://www.w3.org/2000/svg">
<path fill-rule="evenodd" clip-rule="evenodd" d="M16 0.8125H0V32.8125H16C24.8365 32.8125 32 25.6491 32 16.8125C32 7.97595 24.8365 0.8125 16 0.8125ZM17.5003 28.2534C17.1326 28.1451 16.7555 27.7074 16.6754 27.2884C16.6235 27.0155 16.6848 26.8272 17.076 26.0694C18.6599 23.0099 19.3481 20.1952 19.3481 16.7827C19.3481 13.4832 18.74 10.9133 17.2269 7.83497C16.9016 7.17598 16.6376 6.55942 16.6376 6.46996C16.6376 6.1405 16.9111 5.66509 17.208 5.48151C17.6134 5.22736 18.2969 5.27444 18.6269 5.58036C18.7542 5.69805 19.0794 6.23462 19.3528 6.77122C20.437 8.89399 21.1771 11.2239 21.5447 13.6479C21.771 15.1494 21.8182 17.9924 21.6343 19.3668C21.2996 21.8991 20.6303 24.1631 19.5555 26.3753C18.905 27.7121 18.4996 28.2628 18.1602 28.2628C18.0942 28.2628 17.9811 28.2816 17.9151 28.3004C17.8491 28.3193 17.6606 28.3004 17.5003 28.2534ZM13.0929 25.9517C12.5272 25.787 12.1171 25.0903 12.2821 24.5726C12.3198 24.4455 12.5885 23.8665 12.876 23.2829C14.0875 20.8118 14.5919 18.1665 14.3467 15.5683C14.144 13.4314 13.7622 12.0853 12.7959 10.1178C12.1501 8.79515 12.1171 8.59277 12.4942 8.0562C12.8525 7.54786 13.7481 7.46782 14.2147 7.89616C14.54 8.1927 15.5535 10.3061 15.9447 11.5016C17.2363 15.4554 17.0383 19.7057 15.3838 23.5889C14.5306 25.5799 13.9319 26.1965 13.0929 25.9517ZM7.81336 22.7181C7.89822 23.0899 8.19988 23.4618 8.54872 23.6171C8.70428 23.6877 8.96823 23.7254 9.13322 23.7112C9.67534 23.6406 9.944 23.3488 10.4861 22.2521C11.4289 20.3364 11.7683 18.9102 11.773 16.8345C11.7777 14.8152 11.4147 13.2385 10.5285 11.4216C9.95343 10.2402 9.61877 9.9154 8.97295 9.9154C8.59114 9.9154 8.47329 9.95774 8.19988 10.2166C7.64837 10.7391 7.66252 11.0027 8.31773 12.3253C9.80729 15.3424 9.79315 18.3124 8.26588 21.4002C7.85108 22.238 7.76151 22.4921 7.81336 22.7181ZM4.30627 21.4425C4.02814 21.3295 3.71233 20.953 3.61805 20.6235C3.51434 20.2564 3.5992 19.9646 4.014 19.2821C4.5514 18.4019 4.67396 17.9312 4.67396 16.7827C4.67396 15.6343 4.5514 15.1588 4.014 14.2834C3.83018 13.9868 3.65105 13.6291 3.60863 13.4879C3.43421 12.909 3.91975 12.1982 4.57025 12.0759C5.12176 11.9723 5.49888 12.2171 6.00796 13.0078C7.47395 15.2953 7.47395 18.3454 6.00796 20.6141C5.48945 21.4096 4.91434 21.692 4.30627 21.4425Z" fill="#9E77ED"/>
<path d="M53.72 20.6925C53.72 21.9992 53.2733 23.0125 52.38 23.7325C51.5 24.4525 50.3133 24.8125 48.82 24.8125H43.56V10.4525H48.54C49.9933 10.4525 51.1267 10.7792 51.94 11.4325C52.7667 12.0725 53.18 12.9992 53.18 14.2125C53.18 14.8925 52.9867 15.5058 52.6 16.0525C52.2133 16.5992 51.6733 17.0258 50.98 17.3325C51.8733 17.5858 52.5533 18.0058 53.02 18.5925C53.4867 19.1658 53.72 19.8658 53.72 20.6925ZM48.4 12.2125H45.58V16.5325H48.4C49.2667 16.5325 49.9267 16.3392 50.38 15.9525C50.8467 15.5658 51.08 15.0392 51.08 14.3725C51.08 13.7058 50.8467 13.1792 50.38 12.7925C49.9267 12.4058 49.2667 12.2125 48.4 12.2125ZM48.68 18.2925H45.58V23.0525H48.68C49.6133 23.0525 50.3333 22.8392 50.84 22.4125C51.36 21.9858 51.62 21.3925 51.62 20.6325C51.62 19.8992 51.36 19.3258 50.84 18.9125C50.3333 18.4992 49.6133 18.2925 48.68 18.2925ZM62.5153 24.8125V23.1725C62.182 23.7592 61.7286 24.2125 61.1553 24.5325C60.582 24.8525 59.902 25.0125 59.1153 25.0125C58.022 25.0125 57.142 24.7258 56.4753 24.1525C55.8086 23.5658 55.4753 22.7858 55.4753 21.8125C55.4753 20.7725 55.882 19.9858 56.6953 19.4525C57.522 18.9192 58.722 18.6525 60.2953 18.6525C60.602 18.6525 60.902 18.6592 61.1953 18.6725C61.4886 18.6858 61.8486 18.7192 62.2753 18.7725V17.9925C62.2753 17.2458 62.082 16.6658 61.6953 16.2525C61.3086 15.8258 60.762 15.6125 60.0553 15.6125C59.322 15.6125 58.7353 15.8258 58.2953 16.2525C57.8686 16.6658 57.642 17.2392 57.6153 17.9725H55.7753C55.802 17.1725 55.9953 16.4792 56.3553 15.8925C56.7286 15.2925 57.2286 14.8325 57.8553 14.5125C58.4953 14.1792 59.2286 14.0125 60.0553 14.0125C61.362 14.0125 62.3753 14.3658 63.0953 15.0725C63.8286 15.7658 64.1953 16.7458 64.1953 18.0125V24.8125H62.5153ZM57.3953 21.7525C57.3953 22.2992 57.5886 22.7392 57.9753 23.0725C58.362 23.4058 58.8753 23.5725 59.5153 23.5725C60.3686 23.5725 61.042 23.3325 61.5353 22.8525C62.0286 22.3592 62.2753 21.7058 62.2753 20.8925V20.0325C61.8886 19.9925 61.5486 19.9658 61.2553 19.9525C60.962 19.9258 60.682 19.9125 60.4153 19.9125C59.402 19.9125 58.642 20.0658 58.1353 20.3725C57.642 20.6658 57.3953 21.1258 57.3953 21.7525ZM74.9161 24.8125H66.1761V23.2325L72.1961 15.9525H66.2761V14.2125H74.7161V15.8325L68.6961 23.0525H74.9161V24.8125ZM83.3356 24.8125V23.1725C83.0023 23.7592 82.549 24.2125 81.9756 24.5325C81.4023 24.8525 80.7223 25.0125 79.9356 25.0125C78.8423 25.0125 77.9623 24.7258 77.2956 24.1525C76.629 23.5658 76.2956 22.7858 76.2956 21.8125C76.2956 20.7725 76.7023 19.9858 77.5156 19.4525C78.3423 18.9192 79.5423 18.6525 81.1156 18.6525C81.4223 18.6525 81.7223 18.6592 82.0156 18.6725C82.309 18.6858 82.669 18.7192 83.0956 18.7725V17.9925C83.0956 17.2458 82.9023 16.6658 82.5156 16.2525C82.129 15.8258 81.5823 15.6125 80.8756 15.6125C80.1423 15.6125 79.5556 15.8258 79.1156 16.2525C78.689 16.6658 78.4623 17.2392 78.4356 17.9725H76.5956C76.6223 17.1725 76.8156 16.4792 77.1756 15.8925C77.549 15.2925 78.049 14.8325 78.6756 14.5125C79.3156 14.1792 80.049 14.0125 80.8756 14.0125C82.1823 14.0125 83.1956 14.3658 83.9156 15.0725C84.649 15.7658 85.0156 16.7458 85.0156 18.0125V24.8125H83.3356ZM78.2156 21.7525C78.2156 22.2992 78.409 22.7392 78.7956 23.0725C79.1823 23.4058 79.6956 23.5725 80.3356 23.5725C81.189 23.5725 81.8623 23.3325 82.3556 22.8525C82.849 22.3592 83.0956 21.7058 83.0956 20.8925V20.0325C82.709 19.9925 82.369 19.9658 82.0756 19.9525C81.7823 19.9258 81.5023 19.9125 81.2356 19.9125C80.2223 19.9125 79.4623 20.0658 78.9556 20.3725C78.4623 20.6658 78.2156 21.1258 78.2156 21.7525ZM89.7364 19.3925V24.8125H87.7164V14.2125H89.5964V16.4525C89.9697 15.7192 90.5231 15.1392 91.2564 14.7125C92.0031 14.2858 92.8097 14.0725 93.6764 14.0725V16.1725C92.9164 16.1325 92.2364 16.2192 91.6364 16.4325C91.0497 16.6458 90.5831 16.9992 90.2364 17.4925C89.9031 17.9725 89.7364 18.6058 89.7364 19.3925ZM97.315 24.8125H95.275V10.4525H97.315V24.8125ZM108.919 14.2125L103.619 28.6725H101.419L102.939 24.6725L98.7588 14.2125H100.939L104.019 22.2925L106.879 14.2125H108.919Z" fill="#171717"/>
</svg>
