<svg width="40" height="40" viewBox="0 0 40 40" fill="none" xmlns="http://www.w3.org/2000/svg">
<path d="M20.0002 10.4675C20.0002 15.5395 15.8885 19.6511 10.8165 19.6511H1.63281V10.4675C1.63281 5.39546 5.74448 1.28379 10.8165 1.28379C15.8885 1.28379 20.0002 5.39546 20.0002 10.4675Z" fill="#012C16"/>
<path d="M20 28.8348C20 23.7628 24.1117 19.6511 29.1837 19.6511H38.3673V28.8348C38.3673 33.9068 34.2557 38.0185 29.1837 38.0185C24.1117 38.0185 20 33.9068 20 28.8348Z" fill="#012C16"/>
<path d="M1.63281 28.8348C1.63281 33.9068 5.74448 38.0185 10.8165 38.0185H20.0002V28.8348C20.0002 23.7628 15.8885 19.6511 10.8165 19.6511C5.74448 19.6511 1.63281 23.7628 1.63281 28.8348Z" fill="#012C16"/>
<path d="M38.3673 10.4675C38.3673 5.39546 34.2557 1.28379 29.1837 1.28379H20V10.4675C20 15.5395 24.1117 19.6511 29.1837 19.6511C34.2557 19.6511 38.3673 15.5395 38.3673 10.4675Z" fill="#012C16"/>
</svg>
