<svg width="24" height="24" viewBox="0 0 24 24" fill="none" xmlns="http://www.w3.org/2000/svg">
<g clip-path="url(#clip0_4110_3779)">
<path d="M21.6276 17.9515C21.6276 18.2991 21.5503 18.6563 21.3862 19.0039C21.2221 19.3515 21.0096 19.6797 20.7296 19.9887C20.2565 20.5101 19.7352 20.8866 19.1462 21.128C18.5669 21.3694 17.9393 21.4949 17.2634 21.4949C16.2786 21.4949 15.2262 21.2632 14.1158 20.7901C13.0055 20.317 11.8952 19.6797 10.7945 18.8784C9.68412 18.0673 8.63171 17.1694 7.62757 16.1749C6.63309 15.1708 5.73516 14.1184 4.93378 13.0177C4.14205 11.917 3.50481 10.8163 3.04136 9.72526C2.57792 8.62457 2.34619 7.57216 2.34619 6.56802C2.34619 5.91147 2.46205 5.28388 2.69378 4.70457C2.9255 4.1156 3.2924 3.57492 3.80412 3.09216C4.42205 2.48388 5.09792 2.18457 5.8124 2.18457C6.08274 2.18457 6.35309 2.2425 6.59447 2.35836C6.8455 2.47423 7.06757 2.64802 7.24136 2.89905L9.48136 6.05629C9.65516 6.29767 9.78067 6.51974 9.86757 6.73216C9.95447 6.93492 10.0027 7.13767 10.0027 7.32112C10.0027 7.55285 9.93516 7.78457 9.79998 8.00664C9.67447 8.22871 9.49102 8.46043 9.25929 8.69216L8.5255 9.45491C8.41929 9.56112 8.37102 9.68664 8.37102 9.84112C8.37102 9.91836 8.38067 9.98595 8.39998 10.0632C8.42895 10.1404 8.45792 10.1984 8.47723 10.2563C8.65102 10.5749 8.95033 10.9901 9.37516 11.4922C9.80964 11.9942 10.2731 12.5059 10.7752 13.0177C11.2965 13.5294 11.7986 14.0025 12.3103 14.437C12.8124 14.8618 13.2276 15.1515 13.5558 15.3253C13.6041 15.3446 13.6621 15.3735 13.7296 15.4025C13.8069 15.4315 13.8841 15.4411 13.971 15.4411C14.1352 15.4411 14.2607 15.3832 14.3669 15.277L15.1007 14.5528C15.3421 14.3115 15.5738 14.128 15.7958 14.0122C16.0179 13.877 16.24 13.8094 16.4814 13.8094C16.6648 13.8094 16.8579 13.848 17.0703 13.9349C17.2827 14.0218 17.5048 14.1473 17.7462 14.3115L20.9421 16.5804C21.1931 16.7542 21.3669 16.957 21.4731 17.1984C21.5696 17.4397 21.6276 17.6811 21.6276 17.9515Z" stroke="#098239" stroke-width="1.44828" stroke-miterlimit="10"/>
<path d="M18.2753 8.94327C18.2753 8.36396 17.8215 7.47569 17.1457 6.75155C16.5277 6.08534 15.707 5.56396 14.896 5.56396" stroke="#098239" stroke-width="1.44828" stroke-linecap="round" stroke-linejoin="round"/>
<path d="M21.6546 8.94319C21.6546 5.20664 18.6325 2.18457 14.896 2.18457" stroke="#098239" stroke-width="1.44828" stroke-linecap="round" stroke-linejoin="round"/>
</g>
<defs>
<clipPath id="clip0_4110_3779">
<rect width="23.1724" height="23.1724" fill="white" transform="translate(0.413574 0.253662)"/>
</clipPath>
</defs>
</svg>
