<svg width="32" height="33" viewBox="0 0 32 33" fill="none" xmlns="http://www.w3.org/2000/svg">
<g clip-path="url(#clip0_4458_2219)">
<mask id="mask0_4458_2219" style="mask-type:luminance" maskUnits="userSpaceOnUse" x="0" y="0" width="33" height="33">
<path d="M0.0020752 0.919374H32.0021V32.9194H0.0020752V0.919374Z" fill="white"/>
</mask>
<g mask="url(#mask0_4458_2219)">
<path d="M21.2524 18.5849H16.147C16.147 18.5849 18.8501 13.6852 19.2962 13.1379C19.7472 12.5845 20.1743 12.9297 20.215 13.4178C20.2557 13.906 20.1947 20.9844 20.1947 20.9844" stroke="#414651" stroke-width="0.9375" stroke-miterlimit="10" stroke-linecap="round" stroke-linejoin="round"/>
<path d="M15.2187 21.0446C15.2187 21.0446 11.2631 21.0942 11.0757 21.0318C10.8883 20.9694 11.3761 20.6394 13.9696 16.9339C14.4539 16.2419 14.7205 15.6581 14.8339 15.1689L14.8741 14.8544C14.8741 13.7055 13.9427 12.7741 12.7938 12.7741C11.7828 12.7741 10.9402 13.4952 10.7524 14.4512" stroke="#414651" stroke-width="0.9375" stroke-miterlimit="10" stroke-linecap="round" stroke-linejoin="round"/>
<path d="M24.1971 24.0997H26.9001C27.1519 24.0997 27.3208 24.3584 27.2195 24.5889L24.8476 29.9844" stroke="#414651" stroke-width="0.9375" stroke-miterlimit="10" stroke-linecap="round" stroke-linejoin="round"/>
<path d="M31.5332 26.7329C31.5332 29.8904 28.9736 32.45 25.8162 32.45C22.6587 32.45 20.0991 29.8904 20.0991 26.7329C20.0991 23.5755 22.6587 21.0158 25.8162 21.0158C28.9736 21.0158 31.5332 23.5755 31.5332 26.7329Z" stroke="#414651" stroke-width="0.9375" stroke-miterlimit="10" stroke-linecap="round" stroke-linejoin="round"/>
<path d="M28.936 21.9415C29.1091 21.4954 29.2585 21.0421 29.3836 20.5836C29.4599 20.3045 29.7085 20.1047 29.9979 20.0981C30.0074 20.0979 30.017 20.0978 30.0266 20.0978H30.0273C30.8621 20.0948 31.5366 19.4156 31.5336 18.5808L31.5216 15.1433C31.5187 14.3091 30.8388 13.636 30.0047 13.6415H30.0041C29.9944 13.6416 29.9848 13.6415 29.9751 13.6414C29.6859 13.6368 29.4359 13.4388 29.3577 13.1602C29.0214 11.9612 28.5204 10.799 27.8559 9.70851C27.9314 9.53651 28.0388 9.37632 28.1783 9.23876C28.7641 8.66069 28.7439 7.69169 28.16 7.11175L25.724 4.69282C25.136 4.10882 24.175 4.09488 23.5973 4.68907C23.5812 4.70563 23.5648 4.72169 23.5481 4.73732C23.3438 4.92901 23.0351 4.95557 22.7908 4.81832C21.7954 4.259 20.7459 3.83188 19.6678 3.53751C19.3884 3.46119 19.1884 3.21238 19.1818 2.92276C19.1816 2.91332 19.1815 2.90388 19.1815 2.89444V2.89375C19.176 2.05819 18.4955 1.38451 17.6599 1.38744L14.217 1.39951C13.3842 1.40244 12.7139 2.08432 12.7253 2.91694C12.7253 2.92657 12.7253 2.93607 12.7251 2.94557C12.7206 3.23513 12.5224 3.48525 12.2436 3.56344C11.1675 3.86538 10.1209 4.29988 9.12933 4.86625C8.88614 5.00513 8.57745 4.98063 8.37176 4.79051C8.35501 4.77501 8.33845 4.75907 8.32233 4.74263C7.74033 4.1525 6.77951 4.17301 6.19545 4.76113L3.77658 7.19701C3.19664 7.78101 3.18314 8.75019 3.77308 9.324C3.77964 9.33044 3.78614 9.33688 3.79258 9.34338C4.00183 9.55457 4.04289 9.87913 3.89745 10.1384C3.34045 11.1314 2.91489 12.178 2.62133 13.2531C2.54301 13.5399 2.2812 13.7379 1.98389 13.7396L1.9782 13.7396H1.97758C1.14195 13.7451 0.468326 14.4256 0.471201 15.2613L0.483202 18.6894C0.486139 19.5243 1.16526 20.1987 2.00014 20.1958H2.00076C2.01026 20.1957 2.01964 20.1958 2.02908 20.1959C2.31876 20.2004 2.56901 20.3987 2.64726 20.6776C2.94889 21.7526 3.38276 22.7979 3.94814 23.7886C4.0937 24.0436 4.0547 24.3637 3.85039 24.5746C3.84245 24.5828 3.83445 24.5909 3.82626 24.5989C3.24039 25.1766 3.26101 26.1459 3.84489 26.7256L6.28076 29.1445C6.86889 29.7286 7.82983 29.7423 8.4077 29.1481C8.42376 29.1316 8.44014 29.1155 8.45683 29.0998C8.66114 28.9084 8.96964 28.8817 9.21376 29.0188C10.2094 29.5783 11.259 30.0054 12.3372 30.2998C12.6165 30.3761 12.8164 30.6248 12.823 30.9143C12.8232 30.9238 12.8233 30.9333 12.8233 30.9429V30.9435C12.8233 31.7776 13.501 32.4529 14.335 32.4499L17.758 32.4379C18.5954 32.435 19.2741 31.7582 19.2795 30.9209L19.2796 30.9203C19.2795 30.9111 19.2796 30.9018 19.2797 30.8926C19.2841 30.6025 19.4828 30.3519 19.762 30.2736C20.1882 30.154 20.6094 30.0128 21.0248 29.8516" stroke="#414651" stroke-width="0.9375" stroke-miterlimit="10" stroke-linecap="round" stroke-linejoin="round"/>
<path d="M27.0313 18.9848C27.156 18.3151 27.2213 17.6245 27.2213 16.9186C27.2213 10.7227 22.1984 5.69983 16.0025 5.69983C9.80656 5.69983 4.78381 10.7227 4.78381 16.9186C4.78381 23.1145 9.80656 28.1373 16.0025 28.1373C16.7084 28.1373 17.399 28.072 18.0688 27.9473" stroke="#414651" stroke-width="0.9375" stroke-miterlimit="10" stroke-linecap="round" stroke-linejoin="round"/>
<path d="M24.9601 18.948C25.1073 18.2955 25.185 17.6167 25.185 16.9198C25.185 11.8483 21.0736 7.73704 16.0021 7.73704C10.9306 7.73704 6.81934 11.8483 6.81934 16.9198C6.81934 21.9913 10.9306 26.1027 16.0021 26.1027C16.6956 26.1027 17.3711 26.0257 18.0206 25.88" stroke="#414651" stroke-width="0.9375" stroke-miterlimit="10" stroke-linecap="round" stroke-linejoin="round"/>
</g>
</g>
<defs>
<clipPath id="clip0_4458_2219">
<rect width="32" height="32" fill="white" transform="translate(0.000366211 0.922729)"/>
</clipPath>
</defs>
</svg>
