<svg width="60" height="60" viewBox="0 0 60 60" fill="none" xmlns="http://www.w3.org/2000/svg">
<rect width="60" height="60" rx="12" fill="#1B1B1B"/>
<path d="M27.8108 7.88423C28.6982 7.37192 29.7914 7.37192 30.6788 7.88423L47.6806 17.7003C48.568 18.2126 49.1146 19.1594 49.1146 20.184L49.1146 31.1416L31.1077 20.7648C30.2499 20.2706 29.1539 20.5652 28.6596 21.4229C28.1654 22.2807 28.46 23.3767 29.3177 23.871L49.1146 35.2792V39.816C49.1146 40.8406 48.568 41.7874 47.6806 42.2997L30.6788 52.1158C29.7914 52.6281 28.6982 52.6281 27.8108 52.1158L10.809 42.2997C9.92163 41.7874 9.375 40.8406 9.375 39.816L9.375 28.8918L27.2629 39.2339C28.1199 39.7294 29.2164 39.4363 29.7119 38.5793C30.2074 37.7222 29.9143 36.6258 29.0573 36.1303L9.375 24.7508L9.375 20.184C9.375 19.1594 9.92163 18.2126 10.809 17.7003L27.8108 7.88423Z" fill="white"/>
</svg>
