<svg width="41" height="41" viewBox="0 0 41 41" fill="none" xmlns="http://www.w3.org/2000/svg">
<g clip-path="url(#clip0_248_4083)">
<path fill-rule="evenodd" clip-rule="evenodd" d="M14.0476 0.516113C11.7912 0.516113 9.62731 1.41245 8.03182 3.00794L0.333008 10.7067V14.2307C0.333008 16.7204 1.40245 18.9603 3.10702 20.5161C1.40245 22.0719 0.333008 24.3118 0.333008 26.8015V30.3255L8.03182 38.0243C9.62731 39.6198 11.7912 40.5161 14.0476 40.5161C16.5373 40.5161 18.7772 39.4467 20.333 37.7421C21.8888 39.4467 24.1287 40.5161 26.6184 40.5161C28.8748 40.5161 31.0387 39.6198 32.6342 38.0243L40.333 30.3255V26.8015C40.333 24.3118 39.2636 22.0719 37.559 20.5161C39.2636 18.9603 40.333 16.7204 40.333 14.2307V10.7067L32.6342 3.00794C31.0387 1.41245 28.8748 0.516113 26.6184 0.516113C24.1287 0.516113 21.8888 1.58555 20.333 3.29012C18.7772 1.58555 16.5373 0.516113 14.0476 0.516113ZM26.0918 20.5161C25.9959 20.4286 25.9018 20.3387 25.8096 20.2465L20.333 14.7699L14.8564 20.2465C14.7642 20.3387 14.6701 20.4286 14.5742 20.5161C14.6701 20.6036 14.7642 20.6935 14.8564 20.7857L20.333 26.2623L25.8096 20.7857C25.9018 20.6935 25.9959 20.6036 26.0918 20.5161ZM22.5552 30.3255V32.0085C22.5552 34.2525 24.3744 36.0717 26.6184 36.0717C27.696 36.0717 28.7295 35.6436 29.4915 34.8816L35.8886 28.4845V26.8015C35.8886 24.5575 34.0694 22.7383 31.8254 22.7383C30.7478 22.7383 29.7143 23.1664 28.9523 23.9284L22.5552 30.3255ZM18.1108 30.3255L11.7137 23.9284C10.9517 23.1664 9.91825 22.7383 8.84063 22.7383C6.5966 22.7383 4.77745 24.5575 4.77745 26.8015V28.4845L11.1745 34.8816C11.9365 35.6436 12.97 36.0717 14.0476 36.0717C16.2916 36.0717 18.1108 34.2525 18.1108 32.0085V30.3255ZM18.1108 9.02373V10.7067L11.7137 17.1038C10.9517 17.8658 9.91825 18.2939 8.84063 18.2939C6.5966 18.2939 4.77745 16.4747 4.77745 14.2307V12.5477L11.1745 6.15063C11.9365 5.38864 12.97 4.96056 14.0476 4.96056C16.2916 4.96056 18.1108 6.7797 18.1108 9.02373ZM28.9523 17.1038L22.5552 10.7067V9.02373C22.5552 6.7797 24.3744 4.96056 26.6184 4.96056C27.696 4.96056 28.7295 5.38864 29.4915 6.15063L35.8886 12.5477V14.2307C35.8886 16.4747 34.0694 18.2939 31.8254 18.2939C30.7478 18.2939 29.7143 17.8658 28.9523 17.1038Z" fill="#012C16"/>
</g>
<defs>
<clipPath id="clip0_248_4083">
<rect width="40" height="41" fill="white" transform="translate(0.333008)"/>
</clipPath>
</defs>
</svg>
