<svg width="20" height="20" viewBox="0 0 20 20" fill="none" xmlns="http://www.w3.org/2000/svg">
<path fill-rule="evenodd" clip-rule="evenodd" d="M9.99999 0H0V20H9.99999C15.5228 20 20 15.5228 20 10C20 4.47716 15.5228 0 9.99999 0ZM10.9377 17.1505C10.7079 17.0829 10.4722 16.8093 10.4221 16.5475C10.3897 16.3768 10.428 16.2592 10.6725 15.7856C11.6624 13.8734 12.0926 12.1142 12.0926 9.98138C12.0926 7.9192 11.7125 6.31298 10.7668 4.38904C10.5635 3.97718 10.3985 3.59182 10.3985 3.53591C10.3985 3.33 10.5694 3.03287 10.755 2.91813C11.0084 2.75929 11.4356 2.78871 11.6418 2.97991C11.7214 3.05347 11.9246 3.38882 12.0955 3.7242C12.7731 5.05093 13.2357 6.50713 13.4655 8.02216C13.6069 8.96058 13.6363 10.7374 13.5214 11.5964C13.3123 13.1791 12.8939 14.5941 12.2222 15.9768C11.8156 16.8122 11.5623 17.1564 11.3501 17.1564C11.3089 17.1564 11.2382 17.1682 11.1969 17.18C11.1557 17.1917 11.0378 17.18 10.9377 17.1505ZM8.18304 15.712C7.82949 15.609 7.57319 15.1736 7.67631 14.85C7.69985 14.7706 7.86779 14.4088 8.04751 14.044C8.80466 12.4996 9.11991 10.8463 8.96671 9.2224C8.84002 7.88682 8.60139 7.04549 7.99743 5.8158C7.59381 4.98916 7.57319 4.86267 7.80887 4.52731C8.03278 4.2096 8.59255 4.15958 8.88421 4.42729C9.0875 4.61262 9.72093 5.93349 9.96545 6.68069C10.7727 9.1518 10.649 11.8082 9.61486 14.2352C9.08161 15.4796 8.70746 15.865 8.18304 15.712ZM4.88335 13.691C4.93639 13.9234 5.12493 14.1558 5.34295 14.2529C5.44018 14.297 5.60514 14.3205 5.70826 14.3117C6.04709 14.2676 6.215 14.0852 6.55382 13.3998C7.14303 12.2024 7.35516 11.3111 7.35811 10.0138C7.36105 8.75171 7.13421 7.76622 6.58034 6.63069C6.22089 5.89229 6.01173 5.68931 5.60809 5.68931C5.36947 5.68931 5.29581 5.71578 5.12493 5.87758C4.78023 6.20413 4.78907 6.36887 5.19858 7.19551C6.12956 9.0812 6.12072 10.9375 5.16617 12.8673C4.90692 13.3909 4.85094 13.5498 4.88335 13.691ZM2.69142 12.8938C2.51759 12.8232 2.32021 12.5878 2.26128 12.3819C2.19647 12.1524 2.2495 11.97 2.50875 11.5435C2.84462 10.9934 2.92123 10.6992 2.92123 9.98138C2.92123 9.2636 2.84462 8.96647 2.50875 8.41929C2.39387 8.23396 2.28191 8.01038 2.25539 7.92213C2.14638 7.56029 2.44984 7.11609 2.85641 7.0396C3.2011 6.97487 3.4368 7.12784 3.75498 7.62207C4.67122 9.05178 4.67122 10.9581 3.75498 12.376C3.43091 12.8732 3.07146 13.0497 2.69142 12.8938Z" fill="#9E77ED"/>
</svg>
