<svg width="40" height="45" viewBox="0 0 40 45" fill="none" xmlns="http://www.w3.org/2000/svg">
<path fill-rule="evenodd" clip-rule="evenodd" d="M21.4239 7.82325C21.4239 6.83833 21.1946 5.86694 20.7541 4.98599C20.3734 4.22451 20.1498 3.39419 20.0967 2.54449L19.9694 0.507385L19.8421 2.54441C19.7889 3.39413 19.5654 4.22448 19.1846 4.98597C18.7442 5.86693 18.5148 6.83835 18.5148 7.82329V36.8278C18.5148 37.8127 18.7442 38.7842 19.1846 39.6652C19.5654 40.4267 19.7889 41.257 19.8421 42.1068L19.9694 44.1437L20.0967 42.1067C20.1498 41.2569 20.3734 40.4267 20.7541 39.6651C21.1946 38.7842 21.4239 37.8128 21.4239 36.8278V7.82325ZM13.4814 7.89509C13.9219 8.77603 14.1512 9.74748 14.1512 10.7324V33.9187C14.1512 34.9037 13.9219 35.8751 13.4814 36.7561C13.1006 37.5176 12.8771 38.3479 12.8239 39.1976L12.6966 41.2347L12.5694 39.1976C12.5162 38.3479 12.2926 37.5176 11.9119 36.7561C11.4714 35.8751 11.2421 34.9037 11.2421 33.9187V10.7324C11.2421 9.74748 11.4714 8.77603 11.9119 7.89509C12.2926 7.13359 12.5162 6.30327 12.5694 5.45355L12.6966 3.41649L12.8239 5.45355C12.8771 6.30327 13.1006 7.13359 13.4814 7.89509ZM10.5148 13.6415C10.5148 12.6565 10.2856 11.6851 9.84501 10.8042C9.46428 10.0427 9.24071 9.21234 9.1876 8.36262L9.06028 6.32556L8.93296 8.36262C8.87985 9.21234 8.65627 10.0427 8.27553 10.8042C7.83505 11.6851 7.60574 12.6565 7.60574 13.6415V31.0097C7.60574 31.9946 7.83505 32.966 8.27553 33.8469C8.65627 34.6085 8.87985 35.4388 8.93296 36.2885L9.06028 38.3256L9.1876 36.2885C9.24071 35.4388 9.46428 34.6085 9.84501 33.8469C10.2856 32.966 10.5148 31.9946 10.5148 31.0097V13.6415ZM6.20867 16.6223C6.64914 17.5033 6.87846 18.4747 6.87846 19.4597V25.1915C6.87846 26.1764 6.64914 27.1478 6.20867 28.0287C5.82793 28.7903 5.60434 29.6206 5.55124 30.4703L5.42392 32.5074L5.2966 30.4703C5.24349 29.6206 5.01991 28.7903 4.63916 28.0287C4.19869 27.1478 3.96937 26.1764 3.96937 25.1915V19.4597C3.96937 18.4747 4.19869 17.5033 4.63916 16.6223C5.01991 15.8608 5.24349 15.0305 5.2966 14.1808L5.42392 12.1437L5.55124 14.1808C5.60434 15.0305 5.82793 15.8608 6.20867 16.6223ZM3.24195 22.3256L3.2421 22.3687V22.2824L3.24195 22.3256ZM0.333008 22.3687L0.333155 22.3256C0.339753 23.2957 0.56876 24.2517 1.0028 25.1197C1.38354 25.8812 1.60713 26.7115 1.66024 27.5612L1.78755 29.5983L1.91487 27.5612C1.96798 26.7115 2.19156 25.8812 2.57231 25.1197C3.00634 24.2517 3.23535 23.2957 3.24195 22.3256C3.23535 21.3554 3.00634 20.3995 2.57231 19.5315C2.19156 18.7699 1.96798 17.9397 1.91487 17.0899L1.78755 15.0528L1.66024 17.0899C1.60713 17.9397 1.38354 18.7699 1.0028 19.5315C0.56876 20.3995 0.339753 21.3554 0.333155 22.3256L0.333008 22.2824V22.3687ZM17.1177 4.98599C17.5583 5.86693 17.7876 6.83834 17.7876 7.82327V36.8278C17.7876 37.8128 17.5583 38.7842 17.1177 39.6651C16.737 40.4267 16.5135 41.2569 16.4603 42.1067L16.333 44.1437L16.2057 42.1067C16.1526 41.2569 15.929 40.4267 15.5483 39.6651C15.1077 38.7842 14.8785 37.8128 14.8785 36.8278V7.82327C14.8785 6.83834 15.1077 5.86693 15.5483 4.98599C15.929 4.22449 16.1526 3.39416 16.2057 2.54445L16.333 0.507385L16.4603 2.54445C16.5135 3.39416 16.737 4.22449 17.1177 4.98599ZM24.3905 4.98599C24.831 5.86693 25.0603 6.83834 25.0603 7.82327V36.8278C25.0603 37.8128 24.831 38.7842 24.3905 39.6651C24.0097 40.4267 23.7862 41.2569 23.733 42.1067L23.6057 44.1437L23.4785 42.1067C23.4253 41.2569 23.2017 40.4267 22.821 39.6651C22.3805 38.7842 22.1512 37.8128 22.1512 36.8278V7.82327C22.1512 6.83834 22.3805 5.86693 22.821 4.98599C23.2017 4.22449 23.4253 3.39416 23.4785 2.54445L23.6057 0.507385L23.733 2.54445C23.7862 3.39416 24.0097 4.22449 24.3905 4.98599ZM28.6966 10.7324C28.6966 9.74748 28.4674 8.77603 28.0268 7.89509C27.6461 7.13359 27.4226 6.30327 27.3694 5.45355L27.2421 3.41649L27.1148 5.45355C27.0616 6.30327 26.8381 7.13359 26.4574 7.89509C26.0168 8.77603 25.7876 9.74748 25.7876 10.7324V33.9187C25.7876 34.9037 26.0168 35.8751 26.4574 36.7561C26.8381 37.5176 27.0616 38.3479 27.1148 39.1976L27.2421 41.2347L27.3694 39.1976C27.4226 38.3479 27.6461 37.5176 28.0268 36.7561C28.4674 35.8751 28.6966 34.9037 28.6966 33.9187V10.7324ZM31.6632 10.8042C32.1037 11.6851 32.333 12.6565 32.333 13.6415V31.0097C32.333 31.9946 32.1037 32.966 31.6632 33.8469C31.2825 34.6085 31.0589 35.4388 31.0057 36.2885L30.8785 38.3256L30.7512 36.2885C30.698 35.4388 30.4745 34.6085 30.0937 33.8469C29.6533 32.966 29.4239 31.9946 29.4239 31.0097V13.6415C29.4239 12.6565 29.6533 11.6851 30.0937 10.8042C30.4745 10.0427 30.698 9.21234 30.7512 8.36262L30.8785 6.32556L31.0057 8.36262C31.0589 9.21234 31.2825 10.0427 31.6632 10.8042ZM35.9694 19.4597C35.9694 18.4747 35.7401 17.5033 35.2996 16.6223C34.9188 15.8608 34.6953 15.0305 34.6421 14.1808L34.5148 12.1437L34.3876 14.1808C34.3344 15.0305 34.1108 15.8608 33.7301 16.6223C33.2896 17.5033 33.0603 18.4747 33.0603 19.4597V25.1915C33.0603 26.1764 33.2896 27.1478 33.7301 28.0287C34.1108 28.7903 34.3344 29.6206 34.3876 30.4703L34.5148 32.5074L34.6421 30.4703C34.6953 29.6206 34.9188 28.7903 35.2996 28.0287C35.7401 27.1478 35.9694 26.1764 35.9694 25.1915V19.4597ZM39.6056 22.3256C39.6056 22.3399 39.6057 22.3543 39.6057 22.3687V22.2824C39.6057 22.2968 39.6056 22.3112 39.6056 22.3256ZM36.6968 22.3256C36.7034 23.2957 36.9324 24.2517 37.3665 25.1197C37.7472 25.8812 37.9707 26.7115 38.0239 27.5612L38.1512 29.5983L38.2785 27.5612C38.3316 26.7115 38.5552 25.8812 38.9359 25.1197C39.37 24.2517 39.599 23.2957 39.6056 22.3256C39.599 21.3554 39.37 20.3995 38.9359 19.5315C38.5552 18.7699 38.3316 17.9397 38.2785 17.0899L38.1512 15.0528L38.0239 17.0899C37.9707 17.9397 37.7472 18.7699 37.3665 19.5315C36.9324 20.3995 36.7034 21.3554 36.6968 22.3256ZM36.6968 22.3256C36.6967 22.3112 36.6966 22.2968 36.6966 22.2824V22.3687C36.6966 22.3543 36.6967 22.3399 36.6968 22.3256Z" fill="#012C16"/>
</svg>
