<svg width="60" height="60" viewBox="0 0 60 60" fill="none" xmlns="http://www.w3.org/2000/svg">
<rect width="60" height="60" rx="12" fill="#2BB673"/>
<path d="M30.0014 54.782C43.6884 54.782 54.784 43.6865 54.784 29.9994C54.784 16.3123 43.6884 5.2168 30.0014 5.2168C16.3143 5.2168 5.21875 16.3123 5.21875 29.9994C5.21875 43.6865 16.3143 54.782 30.0014 54.782Z" fill="#2BB673"/>
<path d="M18.3038 19.1191L29.1077 29.9479L18.3038 40.7766L7.5 29.9479L18.3038 19.1191Z" fill="white"/>
<path d="M41.6964 19.1191L52.5002 29.9479L41.6964 40.7766L30.8925 29.9479L41.6964 19.1191Z" fill="white"/>
<path d="M30.0001 30.8424L40.8039 41.6711L30.0001 52.4998L19.1963 41.6711L30.0001 30.8424Z" fill="white"/>
<path d="M29.9991 7.5L40.803 18.3287L29.9991 29.1574L19.1953 18.3287L29.9991 7.5Z" fill="white"/>
</svg>
