<svg width="41" height="41" viewBox="0 0 41 41" fill="none" xmlns="http://www.w3.org/2000/svg">
<path d="M22.6911 32.4372C22.727 28.7657 21.7962 25.7801 20.6122 25.7685C19.4281 25.757 18.4392 28.7239 18.4033 32.3952C18.3674 36.0667 19.2982 39.0524 20.4822 39.0639C21.6663 39.0755 22.6553 36.1086 22.6911 32.4372Z" fill="black"/>
<path d="M15.8252 31.6033C17.8405 28.5342 18.6717 25.5193 17.682 24.8694C16.6921 24.2195 14.2561 26.1806 12.2409 29.2497C10.2256 32.3188 9.39429 35.3336 10.3841 35.9836C11.3739 36.6336 13.8099 34.6724 15.8252 31.6033Z" fill="black"/>
<path d="M10.4909 27.2C13.8457 25.7078 16.175 23.6211 15.6937 22.5392C15.2125 21.4573 12.1029 21.7899 8.74822 23.2821C5.39353 24.7743 3.06415 26.861 3.54539 27.9429C4.02662 29.0249 7.13625 28.6922 10.4909 27.2Z" fill="black"/>
<path d="M15.2901 19.5052C15.4702 18.3349 12.6745 16.9333 9.04568 16.3748C5.41678 15.8162 2.32899 16.3122 2.14886 17.4825C1.96873 18.6529 4.76448 20.0543 8.39334 20.6129C12.0222 21.1714 15.11 20.6754 15.2901 19.5052Z" fill="black"/>
<path d="M16.5941 16.7172C17.3782 15.83 15.7837 13.1396 13.0325 10.7082C10.2814 8.27677 7.41551 7.02497 6.63136 7.91221C5.84722 8.79948 7.44178 11.4898 10.1929 13.9212C12.9441 16.3527 15.81 17.6044 16.5941 16.7172Z" fill="black"/>
<path d="M19.1875 15.0878C20.3269 14.7654 20.4401 11.6401 19.4404 8.1072C18.4407 4.57433 16.7066 1.97174 15.5673 2.29415C14.4279 2.61656 14.3147 5.74187 15.3144 9.27477C16.3141 12.8076 18.0481 15.4102 19.1875 15.0878Z" fill="black"/>
<path d="M26.2338 9.38468C27.303 5.8722 27.2514 2.74526 26.1186 2.40045C24.9858 2.05564 23.2008 4.62352 22.1316 8.136C21.0625 11.6484 21.114 14.7754 22.2468 15.1202C23.3796 15.465 25.1646 12.8972 26.2338 9.38468Z" fill="black"/>
<path d="M31.2676 14.1308C34.0658 11.7536 35.7126 9.09491 34.9459 8.19254C34.1793 7.29014 31.2894 8.48572 28.4914 10.8628C25.6932 13.24 24.0464 15.8987 24.813 16.8011C25.5797 17.7035 28.4695 16.508 31.2676 14.1308Z" fill="black"/>
<path d="M32.9326 20.8471C36.5718 20.3602 39.3946 19.0141 39.2375 17.8405C39.0806 16.6669 36.0031 16.1101 32.3639 16.5969C28.7248 17.0838 25.9019 18.4299 26.059 19.6036C26.216 20.7772 29.2934 21.334 32.9326 20.8471Z" fill="black"/>
<path d="M37.6272 28.2784C38.1297 27.2062 35.8419 25.074 32.5173 23.5159C29.1927 21.9578 26.0902 21.564 25.5878 22.6361C25.0853 23.7084 27.373 25.8406 30.6977 27.3987C34.0222 28.9567 37.1247 29.3506 37.6272 28.2784Z" fill="black"/>
<path d="M30.6336 36.1895C31.636 35.5592 30.8644 32.5285 28.91 29.4203C26.9557 26.312 24.5588 24.3033 23.5564 24.9336C22.554 25.5638 23.3256 28.5945 25.28 31.7028C27.2343 34.811 29.6312 36.8198 30.6336 36.1895Z" fill="black"/>
</svg>
