<svg width="11" height="10" viewBox="0 0 11 10" fill="none" xmlns="http://www.w3.org/2000/svg">
<path d="M9.91486 9.57544V6.4104C9.91486 4.85487 9.57999 3.66663 7.76521 3.66663C6.89021 3.66663 6.30689 4.14193 6.06924 4.59562H6.04764V3.80706H4.33008V9.57544H6.12325V6.71286C6.12325 5.95671 6.26368 5.23295 7.19268 5.23295C8.11088 5.23295 8.12169 6.08633 8.12169 6.75607V9.56463H9.91486V9.57544Z" fill="white"/>
<path d="M1.41309 3.80627H3.20626V9.5747H1.41309V3.80627Z" fill="white"/>
<path d="M2.31045 0.932983C1.73793 0.932983 1.27344 1.39748 1.27344 1.97C1.27344 2.54252 1.73793 3.01782 2.31045 3.01782C2.88297 3.01782 3.34747 2.54252 3.34747 1.97C3.34747 1.39748 2.88297 0.932983 2.31045 0.932983Z" fill="white"/>
</svg>
