<svg width="24" height="24" viewBox="0 0 24 24" fill="none" xmlns="http://www.w3.org/2000/svg">
<g clip-path="url(#clip0_4761_5040)">
<path d="M12.1865 24H12.1796C8.59878 23.9757 5.846 22.7952 3.99641 20.49C2.34992 18.439 1.50116 15.5851 1.47266 12.0087V11.9913C1.5012 8.41402 2.34992 5.56092 3.99641 3.50995C5.84511 1.20483 8.59878 0.0241875 12.1787 0H12.1925C14.9375 0.0181406 17.234 0.724266 19.0188 2.09681C20.6964 3.38723 21.8771 5.22647 22.5287 7.56441L20.489 8.13314C19.3853 4.17375 16.5919 2.14955 12.1857 2.11758C9.27641 2.1383 7.07675 3.05273 5.64636 4.83497C4.30667 6.50395 3.61437 8.9145 3.5893 11.9992C3.61522 15.0847 4.30752 17.4953 5.64636 19.1634C7.0768 20.9455 9.27641 21.8599 12.1857 21.8807C14.8079 21.8617 16.5435 21.2507 17.9869 19.8367C19.6342 18.2229 19.604 16.2437 19.0767 15.0398C18.7665 14.3302 18.2029 13.739 17.4432 13.2913C17.2522 14.6414 16.8226 15.7373 16.1588 16.5627C15.2737 17.6647 14.0188 18.2671 12.4302 18.3526C11.228 18.4174 10.0698 18.1332 9.17094 17.5515C8.10781 16.8635 7.48555 15.8107 7.41898 14.5869C7.35416 13.3968 7.82609 12.3025 8.74742 11.5056C9.62816 10.7442 10.8667 10.2974 12.3299 10.2152C13.4086 10.1547 14.4172 10.2023 15.3498 10.3578C15.2262 9.61537 14.9756 9.02681 14.6022 8.60156C14.0888 8.01642 13.2945 7.71741 12.2427 7.71047H12.2133C11.3689 7.71047 10.2219 7.94208 9.49072 9.02939L7.73361 7.84791C8.71198 6.39328 10.3015 5.59294 12.2124 5.59294H12.2556C15.451 5.61281 17.3533 7.56698 17.5426 10.9801C17.6514 11.026 17.7578 11.0734 17.8632 11.1227C19.3542 11.8237 20.444 12.8851 21.0162 14.1919C21.8131 16.0138 21.8866 18.9828 19.4674 21.3509C17.6195 23.1607 15.3757 23.9775 12.1925 23.9992H12.1857L12.1865 24ZM13.1891 12.3085C12.9471 12.3085 12.7016 12.3154 12.4509 12.3301C10.6143 12.4339 9.46995 13.2749 9.53478 14.4728C9.60308 15.7277 10.9877 16.3111 12.3178 16.2394C13.5425 16.1737 15.1364 15.6975 15.4034 12.5289C14.7275 12.3846 13.9842 12.3085 13.1891 12.3085H13.1891Z" fill="black"/>
</g>
<defs>
<clipPath id="clip0_4761_5040">
<rect width="24" height="24" fill="white"/>
</clipPath>
</defs>
</svg>
