<svg width="32" height="33" viewBox="0 0 32 33" fill="none" xmlns="http://www.w3.org/2000/svg">
<path d="M25.6295 18.5953C25.4115 18.5953 25.211 18.4513 25.149 18.2308L25.013 17.7498C24.9385 17.4843 25.093 17.2078 25.3585 17.1328C25.622 17.0598 25.9005 17.2118 25.975 17.4783L26.111 17.9593C26.1855 18.2248 26.031 18.5013 25.7655 18.5758C25.72 18.5893 25.675 18.5953 25.6295 18.5953Z" fill="#414651"/>
<path d="M25.245 23.0478C25.1785 23.0478 25.1105 23.0348 25.046 23.0063C24.7925 22.8958 24.677 22.6008 24.787 22.3483C25.1045 21.6208 25.284 20.8498 25.321 20.0563C25.334 19.7803 25.5795 19.5683 25.844 19.5803C26.12 19.5933 26.333 19.8273 26.32 20.1033C26.277 21.0188 26.0695 21.9083 25.704 22.7478C25.622 22.9353 25.438 23.0478 25.245 23.0478Z" fill="#414651"/>
<path d="M18.823 27.2498C18.1955 27.2498 17.567 27.1718 16.956 27.0138C14.595 26.4043 12.6765 24.6383 11.8245 22.2898C10.973 19.9408 11.313 17.3563 12.734 15.3763C14.14 13.4178 16.4555 12.2543 18.9235 12.3003C21.3955 12.3328 23.6805 13.5443 25.035 15.5408C25.1905 15.7693 25.1305 16.0803 24.902 16.2353C24.6735 16.3908 24.363 16.3308 24.2075 16.1023C23.036 14.3758 21.0555 13.3288 18.91 13.3003C18.88 13.2998 18.8505 13.2998 18.821 13.2998C16.711 13.2998 14.7445 14.2893 13.546 15.9593C12.317 17.6713 12.025 19.9103 12.764 21.9488C13.503 23.9873 15.1635 25.5188 17.205 26.0448C18.602 26.4053 20.1005 26.2863 21.424 25.7098C21.6775 25.5978 21.972 25.7158 22.082 25.9688C22.1925 26.2223 22.076 26.5168 21.823 26.6268C20.8765 27.0403 19.8505 27.2498 18.823 27.2498Z" fill="#414651"/>
<path d="M4 8.42334H3C2.724 8.42334 2.5 8.19934 2.5 7.92334C2.5 7.64734 2.724 7.42334 3 7.42334H4C4.276 7.42334 4.5 7.64734 4.5 7.92334C4.5 8.19934 4.276 8.42334 4 8.42334Z" fill="#414651"/>
<path d="M6.5 8.42334H6C5.724 8.42334 5.5 8.19934 5.5 7.92334C5.5 7.64734 5.724 7.42334 6 7.42334H6.5C6.776 7.42334 7 7.64734 7 7.92334C7 8.19934 6.776 8.42334 6.5 8.42334Z" fill="#414651"/>
<path d="M29 8.42334H8.5C8.224 8.42334 8 8.19934 8 7.92334C8 7.64734 8.224 7.42334 8.5 7.42334H29C29.2765 7.42334 29.5 7.64734 29.5 7.92334C29.5 8.19934 29.2765 8.42334 29 8.42334Z" fill="#414651"/>
<path d="M18.7985 24.7479C18.798 24.7479 18.798 24.7479 18.7985 24.7479C18.3505 24.7479 17.9055 24.6869 17.476 24.5664C15.011 23.8749 13.4455 21.3584 13.912 18.8369C14.37 16.3629 16.738 14.5369 19.2915 14.7734C21.8355 15.0069 23.8285 17.1939 23.8285 19.7519C23.8285 20.3629 23.719 20.9599 23.504 21.5269C22.772 23.4539 20.881 24.7479 18.7985 24.7479ZM18.844 15.7524C16.9375 15.7524 15.24 17.1569 14.8955 19.0184C14.522 21.0364 15.7745 23.0504 17.7465 23.6034C18.088 23.6989 18.442 23.7479 18.7985 23.7479C20.469 23.7479 21.9845 22.7129 22.57 21.1714C22.742 20.7184 22.8295 20.2404 22.8295 19.7514C22.8295 17.7049 21.2355 15.9559 19.2005 15.7689C19.0805 15.7579 18.962 15.7524 18.844 15.7524Z" fill="#414651"/>
<path d="M27.2235 30.4148C27.1845 30.4148 27.146 30.4138 27.107 30.4118C26.471 30.3798 25.8755 30.0858 25.474 29.6058C25.297 29.3938 25.3245 29.0783 25.5365 28.9018C25.749 28.7238 26.064 28.7533 26.2405 28.9643C26.464 29.2313 26.798 29.3948 27.157 29.4133C27.523 29.4273 27.8655 29.3018 28.1155 29.0583C28.3685 28.8118 28.505 28.4603 28.4905 28.0938C28.4765 27.7288 28.313 27.3903 28.042 27.1648C27.8295 26.9878 27.801 26.6733 27.9775 26.4608C28.1535 26.2488 28.469 26.2193 28.6815 26.3963C29.17 26.8028 29.464 27.4068 29.49 28.0543C29.5155 28.7033 29.269 29.3298 28.8135 29.7738C28.393 30.1848 27.8195 30.4148 27.2235 30.4148Z" fill="#414651"/>
<path d="M28.3615 27.2808C28.2485 27.2808 28.135 27.2428 28.041 27.1648L25.0825 24.6928C24.8705 24.5158 24.843 24.2003 25.0195 23.9883C25.197 23.7768 25.5115 23.7488 25.724 23.9253L28.6825 26.3973C28.8945 26.5743 28.922 26.8898 28.7455 27.1018C28.6465 27.2198 28.5045 27.2808 28.3615 27.2808Z" fill="#414651"/>
<path d="M23.386 26.8268C23.2275 26.8268 23.0715 26.7518 22.9745 26.6113C22.8175 26.3848 22.874 26.0733 23.101 25.9153C23.843 25.4008 24.4795 24.7643 24.992 24.0238C25.1485 23.7973 25.46 23.7398 25.688 23.8973C25.915 24.0543 25.9715 24.3663 25.8145 24.5933C25.2335 25.4328 24.512 26.1543 23.6705 26.7378C23.584 26.7978 23.4845 26.8268 23.386 26.8268Z" fill="#414651"/>
<path d="M25.858 29.7854C25.715 29.7854 25.573 29.7244 25.4735 29.6064L23.002 26.6479C22.825 26.4359 22.853 26.1204 23.065 25.9434C23.2775 25.7664 23.592 25.7949 23.7695 26.0064L26.241 28.9649C26.418 29.1769 26.39 29.4924 26.178 29.6694C26.0845 29.7469 25.9705 29.7854 25.858 29.7854Z" fill="#414651"/>
<path d="M22.6 27.0728C22.116 27.0728 21.635 26.8863 21.2715 26.5223C21.076 26.3273 21.076 26.0108 21.2715 25.8153C21.467 25.6198 21.783 25.6198 21.9785 25.8153C22.279 26.1158 22.751 26.1578 23.101 25.9158C23.327 25.7573 23.6395 25.8148 23.7965 26.0418C23.954 26.2683 23.8975 26.5798 23.6705 26.7373C23.346 26.9623 22.972 27.0728 22.6 27.0728Z" fill="#414651"/>
<path d="M25.403 24.8089C25.305 24.8089 25.205 24.7799 25.119 24.7194C24.892 24.5624 24.8355 24.2504 24.993 24.0239C25.235 23.6744 25.1925 23.2019 24.8925 22.9014C24.697 22.7059 24.697 22.3894 24.8925 22.1944C25.088 21.9989 25.404 21.9989 25.5995 22.1944C26.242 22.8374 26.3325 23.8469 25.8145 24.5934C25.7175 24.7334 25.5615 24.8089 25.403 24.8089Z" fill="#414651"/>
<path d="M3 6.42334C2.724 6.42334 2.5 6.19934 2.5 5.92334C2.5 4.54484 3.6215 3.42334 5 3.42334C5.276 3.42334 5.5 3.64734 5.5 3.92334C5.5 4.19934 5.276 4.42334 5 4.42334C4.173 4.42334 3.5 5.09634 3.5 5.92334C3.5 6.19934 3.276 6.42334 3 6.42334Z" fill="#414651"/>
<path d="M27 4.42334H5C4.724 4.42334 4.5 4.19934 4.5 3.92334C4.5 3.64734 4.724 3.42334 5 3.42334H27C27.2765 3.42334 27.5 3.64734 27.5 3.92334C27.5 4.19934 27.2765 4.42334 27 4.42334Z" fill="#414651"/>
<path d="M29 6.42334C28.7235 6.42334 28.5 6.19934 28.5 5.92334C28.5 5.09634 27.827 4.42334 27 4.42334C26.7235 4.42334 26.5 4.19934 26.5 3.92334C26.5 3.64734 26.7235 3.42334 27 3.42334C28.3785 3.42334 29.5 4.54484 29.5 5.92334C29.5 6.19934 29.2765 6.42334 29 6.42334Z" fill="#414651"/>
<path d="M29 24.4233C28.7235 24.4233 28.5 24.1998 28.5 23.9233V5.92334C28.5 5.64734 28.7235 5.42334 29 5.42334C29.2765 5.42334 29.5 5.64734 29.5 5.92334V23.9233C29.5 24.1998 29.2765 24.4233 29 24.4233Z" fill="#414651"/>
<path d="M3 24.4233C2.724 24.4233 2.5 24.1998 2.5 23.9233V5.92334C2.5 5.64734 2.724 5.42334 3 5.42334C3.276 5.42334 3.5 5.64734 3.5 5.92334V23.9233C3.5 24.1998 3.276 24.4233 3 24.4233Z" fill="#414651"/>
<path d="M5 26.4233C3.6215 26.4233 2.5 25.3018 2.5 23.9233C2.5 23.6468 2.724 23.4233 3 23.4233C3.276 23.4233 3.5 23.6468 3.5 23.9233C3.5 24.7503 4.173 25.4233 5 25.4233C5.276 25.4233 5.5 25.6468 5.5 25.9233C5.5 26.1998 5.276 26.4233 5 26.4233Z" fill="#414651"/>
<path d="M7 6.42334H5C4.724 6.42334 4.5 6.19934 4.5 5.92334C4.5 5.64734 4.724 5.42334 5 5.42334H7C7.276 5.42334 7.5 5.64734 7.5 5.92334C7.5 6.19934 7.276 6.42334 7 6.42334Z" fill="#414651"/>
<path d="M15 6.42334H9C8.724 6.42334 8.5 6.19934 8.5 5.92334C8.5 5.64734 8.724 5.42334 9 5.42334H15C15.276 5.42334 15.5 5.64734 15.5 5.92334C15.5 6.19934 15.276 6.42334 15 6.42334Z" fill="#414651"/>
<path d="M27.3065 26.3993C27.0645 26.3993 26.8515 26.2228 26.813 25.9758C26.7705 25.7028 26.9575 25.4473 27.2305 25.4048C27.966 25.2908 28.5 24.6678 28.5 23.9233C28.5 23.6468 28.7235 23.4233 29 23.4233C29.2765 23.4233 29.5 23.6468 29.5 23.9233C29.5 25.1638 28.61 26.2033 27.384 26.3933C27.358 26.3973 27.332 26.3993 27.3065 26.3993Z" fill="#414651"/>
<path d="M15.525 26.4233H5C4.724 26.4233 4.5 26.1998 4.5 25.9233C4.5 25.6468 4.724 25.4233 5 25.4233H15.525C15.801 25.4233 16.025 25.6468 16.025 25.9233C16.025 26.1998 15.8015 26.4233 15.525 26.4233Z" fill="#414651"/>
<path d="M10.2845 17.4233H6C5.724 17.4233 5.5 17.1993 5.5 16.9233C5.5 16.6473 5.724 16.4233 6 16.4233H10.2845C10.5605 16.4233 10.7845 16.6473 10.7845 16.9233C10.7845 17.1993 10.5605 17.4233 10.2845 17.4233Z" fill="#414651"/>
<path d="M11.2335 15.4233H6C5.724 15.4233 5.5 15.1993 5.5 14.9233C5.5 14.6473 5.724 14.4233 6 14.4233H11.2335C11.5095 14.4233 11.7335 14.6473 11.7335 14.9233C11.7335 15.1993 11.5095 15.4233 11.2335 15.4233Z" fill="#414651"/>
<path d="M12.9655 13.4233H6C5.724 13.4233 5.5 13.1993 5.5 12.9233C5.5 12.6473 5.724 12.4233 6 12.4233H12.9655C13.2415 12.4233 13.4655 12.6473 13.4655 12.9233C13.4655 13.1993 13.2415 13.4233 12.9655 13.4233Z" fill="#414651"/>
<path d="M12.9655 11.4233H6C5.724 11.4233 5.5 11.1993 5.5 10.9233C5.5 10.6473 5.724 10.4233 6 10.4233H12.9655C13.2415 10.4233 13.4655 10.6473 13.4655 10.9233C13.4655 11.1993 13.2415 11.4233 12.9655 11.4233Z" fill="#414651"/>
</svg>
