<svg width="50" height="49" viewBox="0 0 50 49" fill="none" xmlns="http://www.w3.org/2000/svg">
<path d="M2.31738 29.941C2.31738 27.681 2.76251 25.443 3.62741 23.3551C4.49232 21.267 5.75998 19.3698 7.3581 17.7717C8.95621 16.1736 10.8534 14.9059 12.9414 14.041C15.0295 13.1762 17.2674 12.731 19.5275 12.731V29.941H2.31738Z" fill="#012C16"/>
<path d="M2.31738 29.941C2.31738 32.2011 2.76251 34.439 3.62741 36.5271C4.49232 38.6151 5.75998 40.5123 7.3581 42.1104C8.95621 43.7085 10.8534 44.9762 12.9414 45.8411C15.0295 46.706 17.2674 47.1511 19.5275 47.1511V29.941H2.31738Z" fill="#012C16"/>
<path d="M36.7371 29.941C36.7371 32.2011 36.2923 34.439 35.4275 36.5271C34.5626 38.6151 33.295 40.5123 31.6966 42.1104C30.0985 43.7085 28.2013 44.9762 26.1132 45.8411C24.0253 46.706 21.7873 47.1511 19.5273 47.1511V29.941H36.7371Z" fill="#012C16"/>
<path d="M47.3489 15.0731C47.3489 22.2097 41.5633 27.9951 34.4268 27.9951H21.5049V15.0731C21.5049 7.93652 27.2903 2.15112 34.4268 2.15112C41.5633 2.15112 47.3489 7.93652 47.3489 15.0731Z" fill="#098239"/>
</svg>
