<svg width="32" height="33" viewBox="0 0 32 33" fill="none" xmlns="http://www.w3.org/2000/svg">
<path d="M28.48 8.81451C28.1962 8.73987 27.8944 8.77994 27.6399 8.92606C27.3854 9.07217 27.1986 9.31258 27.12 9.59531C27.0761 9.73587 27.0618 9.88397 27.0779 10.0303C27.0939 10.1767 27.1401 10.3181 27.2134 10.4458C27.2867 10.5735 27.3856 10.6847 27.5039 10.7724C27.6222 10.86 27.7573 10.9223 27.9008 10.9553C28.0416 10.9949 28.1889 11.0061 28.334 10.9882C28.4792 10.9703 28.6193 10.9236 28.7462 10.8509C28.8731 10.7782 28.9843 10.681 29.0732 10.5648C29.1621 10.4487 29.227 10.316 29.264 10.1745C29.3295 9.8907 29.285 9.59264 29.1395 9.3403C28.994 9.08797 28.7584 8.9001 28.48 8.81451ZM4.096 22.8561C3.81177 22.7908 3.51335 22.8357 3.26095 22.9818C3.00855 23.1279 2.82095 23.3643 2.736 23.6433C2.66244 23.9271 2.70342 24.2284 2.8501 24.4823C2.99678 24.7361 3.23739 24.9221 3.52 25.0001C3.66078 25.0439 3.80909 25.0582 3.95563 25.0419C4.10217 25.0256 4.24375 24.9792 4.37149 24.9056C4.49922 24.8319 4.61033 24.7327 4.69785 24.614C4.78536 24.4954 4.84738 24.3599 4.88 24.2161C4.9196 24.0755 4.93074 23.9285 4.91278 23.7835C4.89482 23.6386 4.84811 23.4987 4.77539 23.372C4.70268 23.2454 4.60542 23.1345 4.4893 23.0459C4.37319 22.9573 4.24057 22.8928 4.0992 22.8561H4.096ZM4.4 21.8033C4.72326 21.8782 5.0185 22.0436 5.2512 22.2801C5.3019 22.3101 5.35859 22.3285 5.41723 22.334C5.47586 22.3396 5.535 22.3321 5.5904 22.3121L8.72 20.4753C8.78302 20.4447 8.83218 20.3915 8.85768 20.3262C8.88319 20.261 8.88316 20.1885 8.8576 20.1233C8.40354 19.1131 8.16877 18.0181 8.16877 16.9105C8.16877 15.8029 8.40354 14.7079 8.8576 13.6977C8.87954 13.6341 8.87769 13.5647 8.85239 13.5023C8.82709 13.44 8.78006 13.3889 8.72 13.3585L6.0352 11.8033C5.96749 11.7733 5.8908 11.7705 5.82107 11.7955C5.75135 11.8205 5.69395 11.8715 5.6608 11.9377C5.6256 12.0081 5.5904 12.1073 5.5584 12.1777C5.51526 12.2754 5.4454 12.3588 5.35688 12.4185C5.26835 12.4781 5.16477 12.5116 5.05807 12.5149C4.95138 12.5183 4.8459 12.4914 4.75382 12.4374C4.66173 12.3834 4.58678 12.3045 4.5376 12.2097C4.51376 12.1602 4.47403 12.12 4.42474 12.0957C4.37545 12.0713 4.31944 12.0642 4.2656 12.0753C3.71383 12.168 3.14718 12.0568 2.6714 11.7624C2.19562 11.468 1.84323 11.0105 1.68 10.4753C1.59659 10.1727 1.57769 9.85597 1.62455 9.54561C1.67141 9.23524 1.78297 8.93819 1.952 8.67371C2.24232 8.25894 2.66459 7.95476 3.14995 7.81075C3.63531 7.66673 4.15515 7.69139 4.6247 7.8807C5.09425 8.07 5.48583 8.41279 5.73558 8.85318C5.98534 9.29356 6.07855 9.80556 6 10.3057C5.98967 10.3599 5.99757 10.4159 6.02246 10.4652C6.04735 10.5144 6.08784 10.5539 6.1376 10.5777L9.2992 12.4145C9.32784 12.4316 9.35972 12.4425 9.39281 12.4465C9.42589 12.4506 9.45946 12.4477 9.49137 12.4381C9.52328 12.4284 9.55284 12.4123 9.57815 12.3906C9.60347 12.3689 9.62399 12.3422 9.6384 12.3121C10.2914 11.4244 11.1213 10.6816 12.0758 10.1309C13.0303 9.58007 14.0887 9.23319 15.184 9.11211C15.2198 9.11254 15.2554 9.1058 15.2886 9.09228C15.3218 9.07876 15.3519 9.05874 15.3773 9.0334C15.4026 9.00806 15.4227 8.9779 15.4362 8.94471C15.4497 8.91151 15.4564 8.87595 15.456 8.84011V7.08011C15.4541 7.02281 15.4329 6.96785 15.3956 6.92424C15.3584 6.88063 15.3075 6.85097 15.2512 6.84011C14.8213 6.68097 14.4505 6.39374 14.189 6.0172C13.9275 5.64067 13.7878 5.19295 13.7888 4.73451C13.7775 4.43727 13.8263 4.1408 13.9322 3.86285C14.0382 3.58489 14.1991 3.33118 14.4054 3.11688C14.6117 2.90258 14.8591 2.73211 15.1328 2.61567C15.4065 2.49923 15.7009 2.43921 15.9984 2.43921C16.2959 2.43921 16.5903 2.49923 16.864 2.61567C17.1377 2.73211 17.3851 2.90258 17.5914 3.11688C17.7977 3.33118 17.9586 3.58489 18.0646 3.86285C18.1705 4.1408 18.2193 4.43727 18.208 4.73451C18.209 5.19295 18.0693 5.64067 17.8078 6.0172C17.5463 6.39374 17.1755 6.68097 16.7456 6.84011C16.6896 6.85107 16.6391 6.88086 16.6024 6.92452C16.5658 6.96819 16.5451 7.0231 16.544 7.08011V8.84651C16.5436 8.88235 16.5503 8.91791 16.5638 8.95111C16.5774 8.9843 16.5974 9.01446 16.6227 9.0398C16.6481 9.06515 16.6782 9.08516 16.7114 9.09868C16.7446 9.1122 16.7802 9.11894 16.816 9.11851C17.9108 9.24001 18.9685 9.58709 19.9225 10.1379C20.8764 10.6886 21.7058 11.4311 22.3584 12.3185C22.3728 12.3486 22.3933 12.3753 22.4187 12.397C22.444 12.4187 22.4735 12.4348 22.5054 12.4445C22.5373 12.4541 22.5709 12.457 22.604 12.4529C22.6371 12.4489 22.669 12.438 22.6976 12.4209L25.8624 10.5841C25.9119 10.5603 25.9521 10.5205 25.9764 10.4712C26.0008 10.422 26.008 10.3659 25.9968 10.3121C25.9407 9.98465 25.9527 9.64914 26.032 9.32651C26.1404 8.91151 26.3668 8.53683 26.6837 8.24788C27.0007 7.95893 27.3947 7.76811 27.818 7.69854C28.2412 7.62896 28.6755 7.68362 29.0683 7.85589C29.4611 8.02816 29.7956 8.31065 30.0311 8.66913C30.2666 9.02761 30.3931 9.44669 30.3952 9.87561C30.3974 10.3045 30.2751 10.7249 30.0432 11.0857C29.8113 11.4465 29.4798 11.7324 29.0887 11.9086C28.6977 12.0848 28.2639 12.1438 27.84 12.0785C27.7763 12.0751 27.7129 12.0891 27.6565 12.119C27.6002 12.1489 27.553 12.1935 27.52 12.2481C27.4861 12.353 27.4215 12.4453 27.3346 12.513C27.2477 12.5808 27.1424 12.6209 27.0324 12.6281C26.9224 12.6354 26.8128 12.6094 26.7177 12.5537C26.6227 12.4979 26.5465 12.4148 26.4992 12.3153C26.464 12.1809 26.3616 12.0785 26.3296 11.9409C26.2909 11.8709 26.2273 11.818 26.1515 11.7925C26.0757 11.7671 25.9931 11.7709 25.92 11.8033L23.2768 13.3713C23.2138 13.4019 23.1649 13.4553 23.1399 13.5207C23.1149 13.5861 23.1158 13.6585 23.1424 13.7233C23.5949 14.734 23.8288 15.8288 23.8288 16.9361C23.8288 18.0434 23.5949 19.1383 23.1424 20.1489C23.1195 20.2121 23.1206 20.2815 23.1453 20.344C23.1701 20.4065 23.2168 20.4577 23.2768 20.4881L26.4064 22.3249C26.4618 22.3449 26.5209 22.3524 26.5796 22.3468C26.6382 22.3413 26.6949 22.3229 26.7456 22.2929C26.9783 22.0564 27.2736 21.891 27.5968 21.8161C27.8782 21.7396 28.1718 21.7195 28.461 21.7568C28.7502 21.7941 29.0291 21.8882 29.2818 22.0336C29.5345 22.1789 29.7561 22.3728 29.9337 22.604C30.1113 22.8352 30.2415 23.0993 30.3168 23.3809C30.394 23.6581 30.4157 23.9478 30.3806 24.2334C30.3454 24.5189 30.2541 24.7947 30.112 25.0449C29.8114 25.5588 29.3243 25.937 28.752 26.1009C28.2578 26.1974 27.7459 26.1377 27.2872 25.9302C26.8285 25.7226 26.4457 25.3774 26.192 24.9425C26.0576 24.7409 25.8528 24.7729 25.6832 24.9425C25.2736 25.5217 24.3552 24.8081 24.832 24.2289C25.0744 23.9694 25.2889 23.6852 25.472 23.3809C25.4937 23.3513 25.5089 23.3173 25.5163 23.2813C25.5238 23.2453 25.5234 23.2082 25.5152 23.1723C25.507 23.1365 25.4912 23.1029 25.4688 23.0737C25.4464 23.0445 25.4181 23.0205 25.3856 23.0033L22.6976 21.4385C22.6425 21.4067 22.5778 21.396 22.5154 21.4083C22.453 21.4207 22.3972 21.4553 22.3584 21.5057C21.7126 22.4027 20.8854 23.1539 19.9307 23.7107C18.9759 24.2675 17.9147 24.6174 16.816 24.7377C16.7802 24.7373 16.7446 24.744 16.7114 24.7575C16.6782 24.7711 16.6481 24.7911 16.6227 24.8164C16.5974 24.8418 16.5774 24.8719 16.5638 24.9051C16.5503 24.9383 16.5436 24.9739 16.544 25.0097V26.7761C16.5451 26.8331 16.5658 26.888 16.6024 26.9317C16.6391 26.9754 16.6896 27.0052 16.7456 27.0161C17.2482 27.2073 17.6689 27.567 17.936 28.0337C17.9476 28.064 17.9652 28.0917 17.9877 28.1151C18.0102 28.1385 18.0372 28.1572 18.067 28.17C18.0968 28.1828 18.1289 28.1895 18.1614 28.1898C18.1938 28.19 18.226 28.1837 18.256 28.1713C18.4052 28.1649 18.5532 28.1423 18.6976 28.1041C18.8353 28.0735 18.9795 28.0976 19.0998 28.1713C19.2201 28.2449 19.3071 28.3625 19.3424 28.4991C19.3777 28.6357 19.3585 28.7806 19.289 28.9033C19.2194 29.0261 19.1049 29.117 18.9696 29.1569C18.7927 29.2182 18.6107 29.2632 18.4256 29.2913C18.3689 29.2939 18.3146 29.3155 18.2717 29.3526C18.2287 29.3898 18.1995 29.4403 18.1888 29.4961C18.1012 30.0114 17.8327 30.4785 17.4314 30.8134C17.0302 31.1484 16.5226 31.3292 16 31.3233C15.48 31.3177 14.9782 31.1313 14.5806 30.7962C14.183 30.4611 13.9144 29.998 13.8208 29.4865C13.7888 29.3841 13.7216 29.2817 13.6192 29.2817C13.3763 29.2434 13.1367 29.1867 12.9024 29.1121C12.7628 29.0756 12.6434 28.9852 12.5705 28.8606C12.4976 28.7361 12.4771 28.5877 12.5136 28.4481C12.5501 28.3085 12.6406 28.1891 12.7651 28.1162C12.8896 28.0433 13.038 28.0228 13.1776 28.0593C13.3735 28.0853 13.5664 28.1303 13.7536 28.1937C13.8182 28.2051 13.8848 28.1947 13.9428 28.1639C14.0007 28.1332 14.0468 28.084 14.0736 28.0241C14.3407 27.5574 14.7614 27.1977 15.264 27.0065C15.3203 26.9957 15.3712 26.966 15.4084 26.9224C15.4457 26.8788 15.4669 26.8238 15.4688 26.7665V25.0001C15.4692 24.9643 15.4625 24.9287 15.449 24.8955C15.4355 24.8623 15.4154 24.8322 15.3901 24.8068C15.3647 24.7815 15.3346 24.7615 15.3014 24.7479C15.2682 24.7344 15.2326 24.7277 15.1968 24.7281C14.0975 24.6082 13.0358 24.2585 12.0804 23.7017C11.125 23.1449 10.2974 22.3934 9.6512 21.4961C9.61241 21.4457 9.55663 21.4111 9.49424 21.3987C9.43184 21.3864 9.36708 21.3971 9.312 21.4289L6.6112 23.0033C6.57753 23.0187 6.54764 23.0413 6.52366 23.0695C6.49968 23.0977 6.48218 23.1308 6.47242 23.1666C6.46265 23.2023 6.46085 23.2397 6.46713 23.2762C6.47342 23.3127 6.48765 23.3473 6.5088 23.3777C6.6816 23.6497 6.8832 23.8865 7.0528 24.1233C7.10197 24.1769 7.1401 24.2396 7.16502 24.3079C7.18994 24.3763 7.20116 24.4488 7.19804 24.5215C7.19492 24.5941 7.17753 24.6654 7.14684 24.7314C7.11615 24.7973 7.07278 24.8565 7.0192 24.9057C6.96562 24.9549 6.90289 24.993 6.83457 25.0179C6.76625 25.0429 6.6937 25.0541 6.62105 25.051C6.54839 25.0478 6.47707 25.0304 6.41114 24.9997C6.34521 24.9691 6.28597 24.9257 6.2368 24.8721C6.20627 24.8409 6.16877 24.8175 6.12739 24.8037C6.086 24.7898 6.04193 24.786 5.99879 24.7926C5.95566 24.7992 5.9147 24.8159 5.8793 24.8414C5.8439 24.8669 5.81508 24.9005 5.7952 24.9393C5.55809 25.3896 5.17762 25.748 4.71398 25.9578C4.25033 26.1676 3.72997 26.2168 3.2352 26.0977C2.667 25.9445 2.18293 25.5719 1.88947 25.0618C1.59602 24.5517 1.51722 23.9459 1.6704 23.3777C1.82359 22.8095 2.19622 22.3254 2.70632 22.032C3.21642 21.7385 3.8222 21.6597 4.3904 21.8129L4.4 21.8033ZM20.72 12.4177C20.2907 12.6456 19.8335 12.8166 19.36 12.9265C19.2878 12.9454 19.2259 12.9918 19.1876 13.0559C19.1493 13.1199 19.1377 13.1964 19.1552 13.2689C19.3744 14.1948 19.4999 15.1403 19.5296 16.0913C19.5292 16.1272 19.5359 16.1627 19.5494 16.1959C19.563 16.2291 19.583 16.2593 19.6083 16.2846C19.6337 16.3099 19.6638 16.33 19.697 16.3435C19.7302 16.357 19.7658 16.3637 19.8016 16.3633H22.4C22.4407 16.3658 22.4814 16.3588 22.5189 16.3428C22.5564 16.3269 22.5897 16.3024 22.616 16.2713C22.6424 16.2403 22.6612 16.2035 22.671 16.1639C22.6807 16.1244 22.681 16.0831 22.672 16.0433C22.5048 14.7205 21.9478 13.4774 21.072 12.4721C21.0278 12.4296 20.9724 12.4007 20.9123 12.3888C20.8521 12.3768 20.7898 12.3824 20.7328 12.4049L20.72 12.4177ZM17.76 13.1985C16.5856 13.3302 15.4008 13.342 14.224 13.2337C14.1552 13.2252 14.0855 13.241 14.0271 13.2784C13.9686 13.3158 13.9251 13.3724 13.904 13.4385C13.7163 14.3116 13.6028 15.1991 13.5648 16.0913C13.5296 16.2257 13.6672 16.3633 13.8368 16.3633H18.1408C18.218 16.3642 18.2929 16.3371 18.3517 16.2872C18.4105 16.2372 18.4492 16.1676 18.4608 16.0913C18.3939 15.1875 18.2645 14.2893 18.0736 13.4033C18.052 13.3376 18.0083 13.2813 17.95 13.244C17.8917 13.2067 17.8224 13.1906 17.7536 13.1985H17.76ZM12.592 12.9969C12.0998 12.905 11.6199 12.7569 11.1616 12.5553C11.1071 12.5213 11.0417 12.5094 10.9787 12.5218C10.9157 12.5343 10.8598 12.5703 10.8224 12.6225C10.0004 13.597 9.48104 14.7904 9.328 16.0561C9.31826 16.0959 9.31811 16.1375 9.32754 16.1774C9.33698 16.2173 9.35574 16.2543 9.38229 16.2856C9.40883 16.3168 9.44241 16.3413 9.48025 16.357C9.5181 16.3728 9.55914 16.3793 9.6 16.3761H12.1824C12.2182 16.3765 12.2538 16.3698 12.287 16.3563C12.3202 16.3428 12.3503 16.3227 12.3757 16.2974C12.401 16.2721 12.4211 16.2419 12.4346 16.2087C12.4481 16.1755 12.4548 16.1399 12.4544 16.1041C12.4926 15.1735 12.6082 14.2476 12.8 13.3361C12.8121 13.3004 12.8163 13.2624 12.8122 13.2249C12.8081 13.1874 12.7959 13.1512 12.7764 13.1189C12.7569 13.0866 12.7306 13.059 12.6993 13.0379C12.668 13.0168 12.6325 13.0028 12.5952 12.9969H12.592ZM12.3584 11.8033C12.5632 11.8353 12.768 11.9057 12.9728 11.9377C13.0048 11.95 13.0391 11.9554 13.0734 11.9533C13.1077 11.9513 13.1411 11.9419 13.1714 11.9258C13.2018 11.9097 13.2283 11.8873 13.2492 11.8601C13.2702 11.8329 13.285 11.8015 13.2928 11.7681C13.3632 11.5633 13.4656 11.3617 13.5328 11.1921C13.5632 11.1437 13.577 11.0866 13.572 11.0296C13.5669 10.9726 13.5434 10.9188 13.505 10.8764C13.4666 10.834 13.4154 10.8053 13.3592 10.7947C13.303 10.7841 13.2448 10.7922 13.1936 10.8177C12.8873 10.9544 12.5911 11.1126 12.3072 11.2913C12.2602 11.3196 12.2225 11.3609 12.1986 11.4103C12.1748 11.4597 12.1659 11.515 12.173 11.5693C12.1802 11.6237 12.203 11.6748 12.2388 11.7164C12.2746 11.7579 12.3217 11.7882 12.3744 11.8033H12.3584ZM14.72 12.1809C15.5733 12.2179 16.428 12.2062 17.28 12.1457C17.3234 12.1365 17.3645 12.1184 17.4005 12.0926C17.4366 12.0667 17.4669 12.0336 17.4894 11.9953C17.512 11.9571 17.5264 11.9146 17.5317 11.8705C17.5369 11.8265 17.5329 11.7818 17.52 11.7393C16.56 9.66251 15.376 9.69771 14.4576 11.7713C14.4442 11.8156 14.4406 11.8622 14.4469 11.908C14.4533 11.9538 14.4695 11.9976 14.4945 12.0366C14.5194 12.0755 14.5525 12.1085 14.5914 12.1335C14.6303 12.1584 14.6742 12.1746 14.72 12.1809ZM19.04 11.8609C19.2096 11.8257 19.3792 11.7585 19.5488 11.7265C19.6015 11.7114 19.6486 11.6811 19.6844 11.6396C19.7202 11.598 19.743 11.5469 19.7502 11.4925C19.7573 11.4382 19.7484 11.3829 19.7246 11.3335C19.7007 11.2841 19.663 11.2428 19.616 11.2145C19.3792 11.0801 19.1072 10.9425 18.8352 10.8081C18.784 10.7862 18.7272 10.7808 18.6727 10.7926C18.6183 10.8044 18.5688 10.8328 18.5312 10.8739C18.4936 10.915 18.4697 10.9668 18.4629 11.0221C18.456 11.0774 18.4664 11.1334 18.4928 11.1825L18.6976 11.6913C18.7262 11.7549 18.776 11.8065 18.8384 11.8375C18.9009 11.8684 18.9721 11.8767 19.04 11.8609ZM19.536 17.7553C19.5037 18.6955 19.3783 19.6302 19.1616 20.5457C19.1442 20.6178 19.1559 20.6939 19.1943 20.7574C19.2326 20.8209 19.2945 20.8668 19.3664 20.8849C19.8494 20.9855 20.3181 21.1456 20.7616 21.3617C20.8167 21.3946 20.8821 21.4056 20.9449 21.3926C21.0077 21.3796 21.0634 21.3434 21.1008 21.2913C21.9643 20.3094 22.5099 19.0888 22.6656 17.7905C22.6746 17.7508 22.6743 17.7095 22.6646 17.6699C22.6548 17.6303 22.636 17.5935 22.6096 17.5625C22.5833 17.5314 22.55 17.5069 22.5125 17.491C22.475 17.475 22.4343 17.468 22.3936 17.4705H19.808C19.7722 17.4701 19.7366 17.4768 19.7034 17.4903C19.6702 17.5039 19.6401 17.5239 19.6147 17.5492C19.5894 17.5746 19.5694 17.6047 19.5558 17.6379C19.5423 17.6711 19.5356 17.7067 19.536 17.7425V17.7553ZM18.72 22.1073C18.6528 22.2801 18.5504 22.4817 18.48 22.6513C18.4536 22.7004 18.4432 22.7565 18.4501 22.8117C18.4569 22.867 18.4808 22.9188 18.5184 22.9599C18.556 23.001 18.6055 23.0295 18.6599 23.0412C18.7144 23.053 18.7712 23.0476 18.8224 23.0257C19.1084 22.9059 19.3817 22.758 19.6384 22.5841C19.6844 22.5555 19.7212 22.5143 19.7444 22.4653C19.7675 22.4163 19.7761 22.3617 19.769 22.308C19.7619 22.2543 19.7395 22.2038 19.7044 22.1625C19.6693 22.1212 19.6231 22.091 19.5712 22.0753C19.4336 22.0401 19.2512 21.9729 19.0944 21.9377C19.0223 21.9107 18.9423 21.9134 18.8722 21.9452C18.802 21.977 18.7473 22.0353 18.72 22.1073ZM13.5168 22.6513C13.4496 22.4817 13.3472 22.2801 13.2768 22.0753C13.2542 22.0122 13.2088 21.9599 13.1497 21.9285C13.0905 21.8972 13.0217 21.889 12.9568 21.9057C12.7582 21.9411 12.564 21.998 12.3776 22.0753C12.3261 22.0861 12.2792 22.1125 12.2432 22.151C12.2073 22.1894 12.184 22.238 12.1767 22.2901C12.1693 22.3422 12.1782 22.3954 12.2022 22.4422C12.2261 22.4891 12.2639 22.5275 12.3104 22.5521C12.5821 22.7307 12.8666 22.889 13.1616 23.0257C13.2128 23.0512 13.271 23.0593 13.3272 23.0487C13.3834 23.0381 13.4346 23.0094 13.473 22.967C13.5114 22.9246 13.5349 22.8708 13.54 22.8138C13.545 22.7568 13.5312 22.6998 13.5008 22.6513H13.5168ZM12.8352 20.5457C12.6185 19.6302 12.4931 18.6955 12.4608 17.7553C12.4612 17.7195 12.4545 17.6839 12.441 17.6507C12.4275 17.6175 12.4074 17.5874 12.3821 17.562C12.3567 17.5367 12.3266 17.5167 12.2934 17.5031C12.2602 17.4896 12.2246 17.4829 12.1888 17.4833H9.6C9.55914 17.4801 9.5181 17.4867 9.48025 17.5024C9.44241 17.5181 9.40883 17.5426 9.38229 17.5739C9.35574 17.6051 9.33698 17.6422 9.32754 17.6821C9.31811 17.7219 9.31826 17.7635 9.328 17.8033C9.49658 19.0822 10.0361 20.2837 10.88 21.2593C10.9179 21.3109 10.9738 21.3464 11.0365 21.3588C11.0993 21.3713 11.1645 21.3597 11.2192 21.3265C11.6695 21.1274 12.1364 20.9678 12.6144 20.8497C12.6521 20.847 12.6888 20.8361 12.7219 20.8179C12.755 20.7997 12.7838 20.7745 12.8063 20.7441C12.8288 20.7137 12.8444 20.6788 12.8522 20.6418C12.8599 20.6048 12.8596 20.5666 12.8512 20.5297L12.8352 20.5457ZM13.584 17.7553C13.622 18.6476 13.7355 19.535 13.9232 20.4081C13.9443 20.4742 13.9878 20.5308 14.0463 20.5682C14.1047 20.6056 14.1744 20.6214 14.2432 20.6129C15.4188 20.4929 16.6036 20.4929 17.7792 20.6129C17.8137 20.6209 17.8494 20.6219 17.8843 20.6159C17.9192 20.6099 17.9525 20.5969 17.9823 20.5779C18.0121 20.5588 18.0378 20.5339 18.0579 20.5048C18.078 20.4756 18.092 20.4428 18.0992 20.4081C18.2861 19.5337 18.4112 18.6473 18.4736 17.7553C18.462 17.679 18.4233 17.6095 18.3645 17.5595C18.3057 17.5095 18.2308 17.4824 18.1536 17.4833H13.856C13.6864 17.4833 13.536 17.6209 13.584 17.7553ZM14.4672 22.0753C15.4272 24.1489 16.576 24.1841 17.5296 22.0753C17.548 22.0343 17.5558 21.9893 17.552 21.9445C17.5483 21.8996 17.5333 21.8565 17.5083 21.8191C17.4834 21.7817 17.4494 21.7512 17.4094 21.7305C17.3695 21.7099 17.325 21.6997 17.28 21.7009C16.4289 21.6232 15.573 21.6114 14.72 21.6657C14.6762 21.6748 14.6348 21.693 14.5985 21.7191C14.5621 21.7452 14.5317 21.7786 14.5091 21.8172C14.4865 21.8558 14.4722 21.8987 14.4672 21.9432C14.4622 21.9876 14.4665 22.0326 14.48 22.0753H14.4672ZM10.24 26.8689C9.92 26.6641 9.6608 26.4945 9.3536 26.2897C8.7424 25.8481 8.1312 26.8017 8.7136 27.2081C9.056 27.4129 9.3536 27.6177 9.6992 27.8225C9.82651 27.8951 9.97742 27.9141 10.1188 27.8754C10.2601 27.8367 10.3802 27.7434 10.4528 27.6161C10.5254 27.4888 10.5444 27.3379 10.5057 27.1966C10.467 27.0552 10.3737 26.9351 10.2464 26.8625L10.24 26.8689ZM4.016 20.7889C4.06183 20.9302 4.16192 21.0475 4.29425 21.115C4.42657 21.1826 4.5803 21.1947 4.7216 21.1489C4.86291 21.1031 4.98023 21.003 5.04774 20.8707C5.11525 20.7383 5.12743 20.5846 5.0816 20.4433C4.9792 20.1041 4.8768 19.7617 4.8096 19.4225C4.6752 18.7409 3.584 18.9137 3.7216 19.6273C3.79066 20.0218 3.89783 20.4087 4.0416 20.7825L4.016 20.7889ZM3.4496 16.1937C3.44519 16.2652 3.45489 16.3368 3.47816 16.4044C3.50142 16.4721 3.53778 16.5346 3.58518 16.5882C3.63257 16.6419 3.69007 16.6856 3.75438 16.717C3.81869 16.7485 3.88857 16.7669 3.96 16.7713C4.03144 16.7757 4.10305 16.766 4.17074 16.7428C4.23843 16.7195 4.30088 16.6831 4.35451 16.6357C4.40815 16.5883 4.45192 16.5308 4.48334 16.4665C4.51475 16.4022 4.53319 16.3324 4.5376 16.2609C4.5728 15.9217 4.6048 15.5793 4.64 15.2049C4.66249 15.0606 4.62675 14.9133 4.54063 14.7954C4.45452 14.6775 4.32508 14.5986 4.1808 14.5761C4.03653 14.5536 3.88922 14.5894 3.7713 14.6755C3.65338 14.7616 3.57449 14.891 3.552 15.0353C3.48611 15.418 3.45186 15.8054 3.4496 16.1937ZM7.1904 7.96331C6.6464 8.47531 7.4624 9.24331 7.9392 8.74731C8.2112 8.47531 8.4832 8.27051 8.7552 8.03051C8.86766 7.93588 8.93791 7.80046 8.95051 7.65403C8.96312 7.5076 8.91703 7.36216 8.8224 7.24971C8.72777 7.13726 8.59235 7.06701 8.44592 7.0544C8.29949 7.0418 8.15406 7.08788 8.0416 7.18251C7.73298 7.41427 7.44788 7.67579 7.1904 7.96331ZM10.9984 5.38091C10.8635 5.43947 10.7573 5.54924 10.7033 5.68606C10.6493 5.82289 10.6518 5.97557 10.7104 6.11051C10.769 6.24545 10.8787 6.35161 11.0156 6.40562C11.1524 6.45963 11.3051 6.45707 11.44 6.39851C11.7618 6.254 12.092 6.12897 12.4288 6.02411C12.4989 6.00245 12.564 5.96706 12.6203 5.92C12.6767 5.87294 12.723 5.81516 12.7568 5.75001C12.7906 5.68486 12.8111 5.61364 12.8171 5.5405C12.8231 5.46736 12.8145 5.39376 12.7918 5.32397C12.7691 5.25418 12.7328 5.1896 12.6849 5.13399C12.637 5.07837 12.5786 5.03284 12.5129 5.00002C12.4473 4.9672 12.3758 4.94777 12.3025 4.94284C12.2293 4.93791 12.1558 4.94759 12.0864 4.97131C11.7164 5.08757 11.3532 5.22432 10.9984 5.38091ZM20.0448 5.00651C19.9082 4.96819 19.7621 4.98318 19.6361 5.04844C19.5101 5.1137 19.4135 5.22437 19.366 5.35807C19.3184 5.49178 19.3234 5.63855 19.3799 5.76872C19.4364 5.89889 19.5403 6.00275 19.6704 6.05931H19.7056C20.0336 6.16248 20.3543 6.28756 20.6656 6.43371H20.6976C20.7638 6.47304 20.8376 6.49778 20.9141 6.50628C20.9907 6.51478 21.0681 6.50684 21.1413 6.483C21.2145 6.45915 21.2818 6.41994 21.3387 6.368C21.3955 6.31607 21.4406 6.25259 21.4709 6.18182C21.5012 6.11105 21.5161 6.03462 21.5145 5.95764C21.5129 5.88066 21.4949 5.80491 21.4617 5.73545C21.4285 5.66599 21.3808 5.60442 21.3219 5.55487C21.263 5.50532 21.1941 5.46892 21.12 5.44811V5.40331C20.7488 5.26891 20.4064 5.13131 20.032 4.99691L20.0448 5.00651ZM24.0576 7.28491C23.5488 6.80811 22.8 7.62411 23.344 8.10091V8.13291C23.6206 8.3419 23.8826 8.56964 24.128 8.81451C24.1772 8.86578 24.236 8.90686 24.301 8.93541C24.366 8.96396 24.4361 8.97942 24.5071 8.98091C24.5781 8.98239 24.6487 8.96988 24.7149 8.94407C24.7811 8.91827 24.8415 8.87968 24.8928 8.83051C24.9441 8.78134 24.9852 8.72256 25.0137 8.65752C25.0423 8.59247 25.0577 8.52244 25.0592 8.45143C25.0607 8.38041 25.0482 8.30979 25.0224 8.24361C24.9966 8.17743 24.958 8.11698 24.9088 8.06571C24.6513 7.77819 24.3662 7.51667 24.0576 7.28491ZM28.4448 15.1729C28.4223 15.0286 28.3434 14.8992 28.2255 14.8131C28.1076 14.727 27.9603 14.6912 27.816 14.7137C27.6717 14.7362 27.5423 14.8151 27.4562 14.933C27.3701 15.0509 27.3343 15.1982 27.3568 15.3425C27.41 15.6913 27.4442 16.0428 27.4592 16.3953C27.4732 16.5372 27.5405 16.6685 27.6475 16.7627C27.7545 16.8569 27.8932 16.9071 28.0357 16.903C28.1782 16.8989 28.3139 16.841 28.4154 16.7408C28.5168 16.6407 28.5765 16.5058 28.5824 16.3633V16.3281C28.5472 15.9537 28.5152 15.5793 28.48 15.2049L28.4448 15.1729ZM28.2432 19.8033C28.2611 19.734 28.2651 19.6618 28.2551 19.5909C28.245 19.52 28.2211 19.4518 28.1847 19.3901C28.1483 19.3285 28.1001 19.2746 28.0429 19.2315C27.9857 19.1885 27.9205 19.1572 27.8512 19.1393C27.7819 19.1215 27.7097 19.1174 27.6388 19.1275C27.5679 19.1375 27.4997 19.1614 27.438 19.1978C27.3764 19.2342 27.3225 19.2824 27.2794 19.3396C27.2364 19.3968 27.2051 19.462 27.1872 19.5313C27.0848 19.8705 27.0176 20.2097 26.8832 20.5521C26.6432 21.2657 27.7312 21.5697 27.936 20.9265C28.0738 20.5617 28.1809 20.186 28.256 19.8033H28.2432ZM23.1424 27.2785C23.2078 27.2405 23.2648 27.1895 23.3097 27.1287C23.3547 27.0678 23.3867 26.9984 23.4038 26.9247C23.4208 26.8509 23.4226 26.7745 23.409 26.7001C23.3954 26.6257 23.3666 26.5548 23.3246 26.4919C23.2825 26.4291 23.228 26.3755 23.1644 26.3345C23.1008 26.2935 23.0295 26.2659 22.9548 26.2536C22.8802 26.2412 22.8038 26.2443 22.7304 26.2626C22.657 26.281 22.5881 26.3141 22.528 26.3601C22.256 26.5617 21.9168 26.7665 21.6448 26.9361C21.5818 26.9695 21.5259 27.015 21.4805 27.07C21.435 27.125 21.4009 27.1884 21.3799 27.2566C21.359 27.3248 21.3516 27.3964 21.3584 27.4675C21.3651 27.5385 21.3858 27.6075 21.4192 27.6705C21.4526 27.7335 21.4981 27.7894 21.5531 27.8348C21.6081 27.8803 21.6715 27.9145 21.7397 27.9354C21.8079 27.9564 21.8795 27.9637 21.9506 27.9569C22.0216 27.9502 22.0906 27.9295 22.1536 27.8961C22.5012 27.7231 22.8322 27.5185 23.1424 27.2849V27.2785ZM16 27.9921C15.7032 27.9938 15.4189 28.1122 15.2088 28.3218C14.9986 28.5314 14.8793 28.8153 14.8768 29.1121C14.8982 29.3945 15.0254 29.6585 15.2331 29.851C15.4408 30.0436 15.7136 30.1506 15.9968 30.1506C16.28 30.1506 16.5528 30.0436 16.7605 29.851C16.9682 29.6585 17.0954 29.3945 17.1168 29.1121C17.1143 28.8158 16.9955 28.5324 16.786 28.3229C16.5765 28.1134 16.2931 27.9946 15.9968 27.9921H16ZM16 3.64651C15.8546 3.64354 15.7101 3.6694 15.5748 3.72259C15.4395 3.77578 15.3161 3.85525 15.2116 3.95641C15.1072 4.05757 15.0238 4.17841 14.9664 4.31196C14.9089 4.44552 14.8785 4.58913 14.8768 4.73451C14.8982 5.01693 15.0254 5.28085 15.2331 5.47342C15.4408 5.66599 15.7136 5.77299 15.9968 5.77299C16.28 5.77299 16.5528 5.66599 16.7605 5.47342C16.9682 5.28085 17.0954 5.01693 17.1168 4.73451C17.1151 4.58968 17.0849 4.4466 17.0278 4.31347C16.9708 4.18034 16.888 4.05978 16.7842 3.95871C16.6805 3.85764 16.5578 3.77803 16.4232 3.72446C16.2887 3.67089 16.1448 3.6444 16 3.64651ZM27.9008 22.8465C27.7594 22.8832 27.6268 22.9477 27.5107 23.0363C27.3946 23.1249 27.2973 23.2358 27.2246 23.3624C27.1519 23.4891 27.1052 23.629 27.0872 23.7739C27.0693 23.9189 27.0804 24.0659 27.12 24.2065C27.1515 24.3512 27.2127 24.4877 27.2998 24.6074C27.3868 24.7272 27.4978 24.8275 27.6256 24.9021C27.7535 24.9767 27.8955 25.024 28.0425 25.0408C28.1896 25.0577 28.3386 25.0438 28.48 25.0001C28.7622 24.9214 29.0022 24.7353 29.1488 24.4816C29.2954 24.228 29.3367 23.9271 29.264 23.6433C29.1771 23.3651 28.9885 23.1299 28.7358 22.9846C28.4831 22.8392 28.185 22.7945 27.9008 22.8593V22.8465ZM3.52 8.81451C3.24177 8.90009 3.00639 9.08811 2.86146 9.34056C2.71652 9.59302 2.67282 9.89108 2.7392 10.1745C2.7755 10.3161 2.83979 10.449 2.92828 10.5653C3.01677 10.6817 3.12767 10.7791 3.25444 10.8519C3.38121 10.9247 3.52127 10.9713 3.66636 10.9891C3.81145 11.0068 3.95863 10.9954 4.0992 10.9553C4.2427 10.9223 4.37783 10.86 4.49612 10.7724C4.61442 10.6847 4.71332 10.5735 4.78663 10.4458C4.85994 10.3181 4.90607 10.1767 4.92214 10.0303C4.93821 9.88397 4.92386 9.73587 4.88 9.59531C4.80136 9.31258 4.6146 9.07217 4.3601 8.92606C4.1056 8.77994 3.80382 8.73987 3.52 8.81451Z" fill="#414651"/>
</svg>
