<svg width="36" height="36" viewBox="0 0 36 36" fill="none" xmlns="http://www.w3.org/2000/svg">
<g clip-path="url(#clip0_248_3853)">
<path d="M35.4186 17.6561C35.4186 21.5206 34.1669 25.097 32.0211 27.9979H17.9538C23.6563 27.9979 28.2957 23.3585 28.2957 17.6561C28.2957 11.9536 23.6662 7.31431 17.9538 7.31431V0.181328C27.6003 0.181328 35.4186 8.00972 35.4186 17.6461V17.6561ZM7.62197 17.6561C7.62197 11.9637 12.2514 7.31431 17.9538 7.31431H3.88659C1.76061 10.2152 0.499023 13.7817 0.499023 17.6561C0.499023 27.3025 8.31741 35.1209 17.9538 35.1209V27.988C12.2614 27.988 7.62197 23.3486 7.62197 17.6461V17.6561Z" fill="#3F403F"/>
</g>
<defs>
<clipPath id="clip0_248_3853">
<rect width="34.9396" height="34.9396" fill="white" transform="translate(0.489258 0.181328)"/>
</clipPath>
</defs>
</svg>
