<svg width="11" height="10" viewBox="0 0 11 10" fill="none" xmlns="http://www.w3.org/2000/svg">
<path d="M10.9976 1.90477C10.5959 2.08098 10.1678 2.19778 9.72157 2.25449C10.1807 1.98038 10.5311 1.54964 10.6958 1.03046C10.2678 1.28566 9.79516 1.46592 9.2915 1.56652C8.88507 1.13375 8.3058 0.865723 7.67386 0.865723C6.44781 0.865723 5.46074 1.86088 5.46074 3.08086C5.46074 3.2564 5.47559 3.42518 5.51205 3.58587C3.67094 3.49607 2.04182 2.61366 0.947419 1.26946C0.756354 1.60095 0.644281 1.98038 0.644281 2.38884C0.644281 3.1558 1.03924 3.83567 1.62796 4.22928C1.27216 4.22252 0.923114 4.11923 0.627402 3.95652C0.627402 3.96327 0.627402 3.97205 0.627402 3.98082C0.627402 5.057 1.39504 5.95089 2.40167 6.1568C2.22141 6.20609 2.02494 6.22972 1.82105 6.22972C1.67927 6.22972 1.53614 6.22162 1.40179 6.19191C1.68872 7.06892 2.50294 7.71368 3.4711 7.73461C2.71764 8.32401 1.76096 8.67913 0.725298 8.67913C0.543685 8.67913 0.369498 8.67103 0.195312 8.64875C1.17629 9.28136 2.33888 9.64256 3.59262 9.64256C7.66779 9.64256 9.89575 6.26685 9.89575 3.34079C9.89575 3.2429 9.89238 3.14838 9.88765 3.05453C10.3272 2.74262 10.6965 2.35306 10.9976 1.90477Z" fill="white"/>
</svg>
