<svg width="40" height="41" viewBox="0 0 40 41" fill="none" xmlns="http://www.w3.org/2000/svg">
<g clip-path="url(#clip0_248_4096)">
<path fill-rule="evenodd" clip-rule="evenodd" d="M25.5557 12.0109C23.9112 10.9121 21.9778 10.3256 20 10.3256V0.325562C23.9556 0.325562 27.8224 1.49854 31.1114 3.69617C34.4004 5.89379 36.9638 9.01737 38.4776 12.6719C39.9913 16.3264 40.3874 20.3478 39.6157 24.2274C38.844 28.107 36.9392 31.6707 34.1421 34.4677C31.3451 37.2648 27.7814 39.1696 23.9018 39.9413C20.0222 40.713 16.0008 40.3169 12.3463 38.8032C8.69181 37.2894 5.56823 34.726 3.37061 31.437C1.17298 28.148 0 24.2812 0 20.3256H10C10 22.3034 10.5865 24.2368 11.6853 25.8813C12.7841 27.5258 14.3459 28.8075 16.1732 29.5644C18.0004 30.3213 20.0111 30.5193 21.9509 30.1334C23.8907 29.7476 25.6725 28.7952 27.0711 27.3967C28.4696 25.9981 29.422 24.2163 29.8078 22.2765C30.1937 20.3367 29.9957 18.326 29.2388 16.4988C28.4819 14.6715 27.2002 13.1097 25.5557 12.0109Z" fill="#012C16"/>
<path fill-rule="evenodd" clip-rule="evenodd" d="M10 0.325566C10 1.63879 9.74135 2.93915 9.2388 4.1524C8.73625 5.36566 7.99965 6.46805 7.07106 7.39664C6.14249 8.32523 5.04009 9.06182 3.82683 9.56437C2.61357 10.0669 1.31322 10.3256 4.3711e-07 10.3256L0 20.3256C2.62644 20.3256 5.22715 19.8083 7.65368 18.8032C10.0802 17.7981 12.285 16.3249 14.1421 14.4677C15.9993 12.6106 17.4725 10.4058 18.4776 7.97924C19.4827 5.55272 20 2.952 20 0.325562L10 0.325566Z" fill="#012C16"/>
</g>
<defs>
<clipPath id="clip0_248_4096">
<rect width="40" height="40" fill="white" transform="translate(0 0.325562)"/>
</clipPath>
</defs>
</svg>
