<svg width="41" height="41" viewBox="0 0 41 41" fill="none" xmlns="http://www.w3.org/2000/svg">
<g clip-path="url(#clip0_248_4089)">
<path d="M40.6116 21.9998H33.467C27.2261 21.9998 22.167 27.059 22.167 33.2998V40.4444C32.0169 39.714 39.8812 31.8497 40.6116 21.9998Z" fill="#012C16"/>
<path d="M19.1673 40.4444V33.2998C19.1673 27.059 14.1081 21.9998 7.86725 21.9998H0.722656C1.45299 31.8497 9.31735 39.714 19.1673 40.4444Z" fill="#012C16"/>
<path d="M40.6116 18.9998C39.8812 9.14987 32.0169 1.28551 22.167 0.555176V7.69977C22.167 13.9406 27.2261 18.9998 33.467 18.9998H40.6116Z" fill="#012C16"/>
<path d="M19.1673 0.555176C9.31735 1.28551 1.45299 9.14987 0.722656 18.9998H7.86725C14.1081 18.9998 19.1673 13.9406 19.1673 7.69977V0.555176Z" fill="#012C16"/>
<path d="M14.25 20.4998C17.0225 19.1145 19.282 16.855 20.6672 14.0825C22.0525 16.855 24.3119 19.1145 27.0845 20.4998C24.3119 21.885 22.0525 24.1445 20.6672 26.917C19.282 24.1445 17.0225 21.885 14.25 20.4998Z" fill="#C2E0CE"/>
</g>
<defs>
<clipPath id="clip0_248_4089">
<rect width="40" height="40" fill="white" transform="translate(0.666992 0.5)"/>
</clipPath>
</defs>
</svg>
