<svg width="262" height="37" viewBox="0 0 262 37" fill="none" xmlns="http://www.w3.org/2000/svg">
<path d="M81.6643 0.967451H95.1869C97.8802 0.967451 100.21 1.37063 102.178 2.17698C104.161 2.98332 105.686 4.17672 106.75 5.75717C107.814 7.33761 108.346 9.289 108.346 11.6113C108.346 13.5465 108.032 15.1915 107.403 16.5462C106.774 17.9008 105.887 19.0216 104.742 19.9086C103.613 20.7957 102.291 21.5133 100.775 22.0615L98.2106 23.4647H86.6961L86.6476 17.3444H95.211C96.3884 17.3444 97.364 17.1348 98.1382 16.7155C98.9123 16.2962 99.4928 15.7075 99.8798 14.9496C100.283 14.1755 100.485 13.2724 100.485 12.2402C100.485 11.1759 100.283 10.2566 99.8798 9.48252C99.4767 8.70843 98.88 8.11978 98.0897 7.71661C97.3156 7.2973 96.348 7.08765 95.1869 7.08765H89.5504V36.1889H81.6643V0.967451ZM101.162 36.1889L93.2517 20.5376L101.573 20.5134L109.604 35.826V36.1889H101.162Z" fill="white"/>
<path d="M137.641 30.0928V36.1889H118.894V30.0928H137.641ZM121.579 0.967451V36.1889H113.693V0.967451H121.579ZM135.222 15.1431V21.0456H118.894V15.1431H135.222ZM137.666 0.967451V7.08765H118.894V0.967451H137.666Z" fill="white"/>
<path d="M155.397 23.9485H146.543V17.8282H155.397C156.703 17.8282 157.752 17.6105 158.542 17.1751C159.348 16.7397 159.937 16.143 160.308 15.385C160.695 14.6109 160.888 13.74 160.888 12.7724C160.888 11.7726 160.695 10.8452 160.308 9.99053C159.937 9.11966 159.348 8.41813 158.542 7.88595C157.752 7.35374 156.703 7.08765 155.397 7.08765H149.398V36.1889H141.512V0.967451H155.397C158.203 0.967451 160.606 1.47545 162.606 2.49145C164.622 3.50745 166.162 4.90245 167.226 6.67642C168.307 8.43426 168.847 10.4501 168.847 12.724C168.847 14.998 168.307 16.9735 167.226 18.6507C166.162 20.3279 164.622 21.6342 162.606 22.5696C160.606 23.4889 158.203 23.9485 155.397 23.9485Z" fill="white"/>
<path d="M197.586 30.0928V36.1889H178.838V30.0928H197.586ZM181.523 0.967451V36.1889H173.637V0.967451H181.523ZM195.166 15.1431V21.0456H178.838V15.1431H195.166ZM197.61 0.967451V7.08765H178.838V0.967451H197.61Z" fill="white"/>
<path d="M218.341 0.967451V36.1889H210.479V0.967451H218.341ZM229.058 0.967451V7.08765H199.98V0.967451H229.058Z" fill="white"/>
<path d="M261.642 17.3204V18.8928C261.642 21.5698 261.271 23.9728 260.53 26.1016C259.803 28.2304 258.764 30.0447 257.409 31.5443C256.071 33.0442 254.474 34.1974 252.619 35.0036C250.78 35.7939 248.741 36.189 246.499 36.189C244.258 36.189 242.209 35.7939 240.354 35.0036C238.499 34.1974 236.886 33.0442 235.515 31.5443C234.161 30.0447 233.113 28.2304 232.37 26.1016C231.63 23.9728 231.258 21.5698 231.258 18.8928V17.3204C231.258 14.6433 231.63 12.2404 232.37 10.1116C233.113 7.96675 234.153 6.14439 235.491 4.64459C236.846 3.14477 238.45 1.99975 240.306 1.20953C242.161 0.403176 244.209 0 246.45 0C248.693 0 250.74 0.403176 252.595 1.20953C254.45 1.99975 256.047 3.14477 257.385 4.64459C258.739 6.14439 259.787 7.96675 260.53 10.1116C261.271 12.2404 261.642 14.6433 261.642 17.3204ZM253.683 18.8928V17.272C253.683 15.4819 253.521 13.9015 253.2 12.5307C252.877 11.1438 252.409 9.98263 251.795 9.04725C251.184 8.11189 250.425 7.41036 249.522 6.94267C248.62 6.45887 247.595 6.21696 246.45 6.21696C245.257 6.21696 244.218 6.45887 243.329 6.94267C242.443 7.41036 241.692 8.11189 241.081 9.04725C240.483 9.98263 240.023 11.1438 239.702 12.5307C239.395 13.9015 239.242 15.4819 239.242 17.272V18.8928C239.242 20.6667 239.395 22.2473 239.702 23.6342C240.023 25.0049 240.491 26.1662 241.105 27.1175C241.716 28.0691 242.467 28.7867 243.354 29.2706C244.258 29.7542 245.306 29.9963 246.499 29.9963C247.643 29.9963 248.661 29.7542 249.547 29.2706C250.449 28.7867 251.208 28.0691 251.82 27.1175C252.433 26.1662 252.894 25.0049 253.2 23.6342C253.521 22.2473 253.683 20.6667 253.683 18.8928Z" fill="white"/>
<path d="M72.8026 1.36304H39.2774C37.6746 1.36304 36.3752 2.66238 36.3752 4.26519C36.3752 5.86801 37.6746 7.16735 39.2774 7.16735H72.8026" stroke="white"/>
<path d="M0 29.4173C0 25.6774 3.03179 22.6456 6.7717 22.6456H72.8026V36.189H6.77172C3.03181 36.189 0 33.1572 0 29.4173V29.4173Z" fill="#98E9AB"/>
<path d="M16.1931 14.9065C16.1931 12.2351 18.3587 10.0695 21.03 10.0695H72.8025V19.7434H21.03C18.3587 19.7434 16.1931 17.5778 16.1931 14.9065V14.9065Z" fill="white"/>
</svg>
