<svg width="1303" height="180" viewBox="0 0 1303 180" fill="none" xmlns="http://www.w3.org/2000/svg">
<rect y="105.345" width="376.285" height="70" fill="#98E9AB"/>
<path d="M50.2369 45.3447H376.285V95.3447H50.2369V45.3447Z" fill="#AE7AFF"/>
<path d="M376.285 5.34473H100.768V35.3447H376.285" stroke="black" stroke-width="6"/>
<path d="M411.215 2.39676H478.205C491.547 2.39676 503.091 4.39405 512.838 8.38865C522.664 12.3832 530.214 18.2952 535.487 26.1246C540.76 33.954 543.396 43.621 543.396 55.1254C543.396 64.7124 541.839 72.8614 538.723 79.5723C535.607 86.2832 531.213 91.8357 525.541 96.2298C519.948 100.624 513.397 104.179 505.887 106.895L493.184 113.846H436.142L435.902 83.5269H478.324C484.157 83.5269 488.99 82.4884 492.825 80.4112C496.66 78.334 499.536 75.4179 501.453 71.663C503.45 67.8282 504.449 63.3543 504.449 58.2412C504.449 52.9683 503.45 48.4145 501.453 44.5797C499.456 40.7449 496.5 37.8288 492.585 35.8315C488.75 33.7543 483.957 32.7157 478.205 32.7157H450.282V176.881H411.215V2.39676ZM507.805 176.881L468.618 99.3455L509.842 99.2257L549.628 175.083V176.881H507.805Z" fill="black"/>
<path d="M688.52 146.681V176.881H595.646V146.681H688.52ZM608.948 2.39676V176.881H569.881V2.39676H608.948ZM676.536 72.6217V101.862H595.646V72.6217H676.536ZM688.64 2.39676V32.7157H595.646V2.39676H688.64Z" fill="black"/>
<path d="M776.481 116.243H732.62V85.9237H776.481C782.952 85.9237 788.145 84.8452 792.06 82.6881C796.054 80.531 798.97 77.575 800.808 73.8201C802.725 69.9853 803.684 65.6711 803.684 60.8776C803.684 55.9243 802.725 51.3305 800.808 47.0963C798.97 42.7821 796.054 39.3068 792.06 36.6704C788.145 34.0339 782.952 32.7157 776.481 32.7157H746.761V176.881H707.694V2.39676H776.481C790.382 2.39676 802.286 4.91335 812.193 9.94654C822.179 14.9797 829.809 21.8904 835.082 30.6785C840.434 39.3867 843.111 49.3732 843.111 60.6379C843.111 71.9027 840.434 81.6894 835.082 89.9982C829.809 98.3069 822.179 104.778 812.193 109.412C802.286 113.966 790.382 116.243 776.481 116.243Z" fill="black"/>
<path d="M985.478 146.681V176.881H892.604V146.681H985.478ZM905.906 2.39676V176.881H866.839V2.39676H905.906ZM973.494 72.6217V101.862H892.604V72.6217H973.494ZM985.598 2.39676V32.7157H892.604V2.39676H985.598Z" fill="black"/>
<path d="M1088.3 2.39676V176.881H1049.35V2.39676H1088.3ZM1141.39 2.39676V32.7157H997.342V2.39676H1141.39Z" fill="black"/>
<path d="M1302.81 85.8039V93.5933C1302.81 106.855 1300.97 118.759 1297.3 129.305C1293.7 139.851 1288.55 148.839 1281.84 156.268C1275.21 163.698 1267.3 169.411 1258.11 173.405C1249 177.32 1238.9 179.277 1227.79 179.277C1216.69 179.277 1206.54 177.32 1197.35 173.405C1188.16 169.411 1180.17 163.698 1173.38 156.268C1166.67 148.839 1161.48 139.851 1157.8 129.305C1154.13 118.759 1152.29 106.855 1152.29 93.5933V85.8039C1152.29 72.5418 1154.13 60.6379 1157.8 50.0922C1161.48 39.4666 1166.63 30.4388 1173.26 23.0089C1179.97 15.5789 1187.92 9.90659 1197.11 5.99189C1206.3 1.9973 1216.45 0 1227.55 0C1238.66 0 1248.8 1.9973 1257.99 5.99189C1267.18 9.90659 1275.09 15.5789 1281.72 23.0089C1288.43 30.4388 1293.62 39.4666 1297.3 50.0922C1300.97 60.6379 1302.81 72.5418 1302.81 85.8039ZM1263.38 93.5933V85.5642C1263.38 76.6962 1262.58 68.8668 1260.99 62.076C1259.39 55.2053 1257.07 49.4531 1254.03 44.8193C1251 40.1856 1247.24 36.7103 1242.77 34.3934C1238.3 31.9967 1233.22 30.7983 1227.55 30.7983C1221.64 30.7983 1216.49 31.9967 1212.09 34.3934C1207.7 36.7103 1203.98 40.1856 1200.95 44.8193C1197.99 49.4531 1195.71 55.2053 1194.12 62.076C1192.6 68.8668 1191.84 76.6962 1191.84 85.5642V93.5933C1191.84 102.381 1192.6 110.211 1194.12 117.082C1195.71 123.872 1198.03 129.625 1201.07 134.338C1204.1 139.052 1207.82 142.607 1212.21 145.004C1216.69 147.4 1221.88 148.599 1227.79 148.599C1233.46 148.599 1238.5 147.4 1242.89 145.004C1247.36 142.607 1251.12 139.052 1254.15 134.338C1257.19 129.625 1259.47 123.872 1260.99 117.082C1262.58 110.211 1263.38 102.381 1263.38 93.5933Z" fill="black"/>
</svg>
